<svg xmlns="http://www.w3.org/2000/svg" version="1.1" xmlns:xlink="http://www.w3.org/1999/xlink" viewBox="0 0 23.995363943214738 6.630386648292859"><g transform="matrix(0.7220651411762162,0,0,0.7220651411762162,7.489563384194131,2.613264774594765)"><g transform="matrix(1,0,0,1,0,0)" clip-path="url(#SvgjsClipPath52742)"><g clip-path="url(#aeecf4b0a-2b68-421a-bdd6-da7fb081717b5d7ac2fb-91ef-4e53-b304-cc82625e1c70)"><path d=" M -4.014416848631496 0.7800047237771262 C -3.9457815273834775 0.8486400427333982 -3.918976382489271 0.9486782011365129 -3.944098652818966 1.0424357921066827 C -3.9692209231486606 1.1361933830768525 -4.0424539381174736 1.2094263978179076 -4.1362115291657755 1.234548667856012 C -4.229969120214077 1.259670937894116 -4.3300072785338255 1.232865792688787 -4.3986425972766385 1.1642304712273086 C -4.504743604108108 1.058129460853106 -4.504743602805882 0.8861057366485143 -4.398642593770556 0.7800047272832091 C -4.292541584735229 0.6739037179179037 -4.120517860530637 0.6739037160806762 -4.014416849228976 0.7800047231796463" fill="#bfe588" transform="matrix(1,0,0,1,0,0)" fill-rule="nonzero"></path></g><g clip-path="url(#aeecf4b0a-2b68-421a-bdd6-da7fb081717b5d7ac2fb-91ef-4e53-b304-cc82625e1c70)"><path d=" M -3.4252963508739485 1.369125221534674 C -3.3566610296259296 1.4377605404909461 -3.3298558847317232 1.5377986988940608 -3.354978155061418 1.6315562898642306 C -3.3801004253911127 1.7253138808344004 -3.453333440359926 1.7985468955754556 -3.547091031408227 1.82366916561356 C -3.640848622456528 1.8487914356516644 -3.740886780776278 1.8219862904463349 -3.809522099519091 1.7533509689848565 C -3.91562310635056 1.647249958610654 -3.915623105048334 1.4752262344060623 -3.8095220960130076 1.369125225040757 C -3.7034210869776816 1.2630242156754519 -3.53139736277309 1.2630242138382242 -3.4252963514714283 1.3691252209371942" fill="#bfe588" transform="matrix(1,0,0,1,0,0)" fill-rule="nonzero"></path></g><g clip-path="url(#aeecf4b0a-2b68-421a-bdd6-da7fb081717b5d7ac2fb-91ef-4e53-b304-cc82625e1c70)"><path d=" M -2.8361758531164005 1.9582457192922216 C -2.766144134109217 2.026613622489803 -2.738284602685797 2.1273577735937392 -2.763239816946025 2.2219931218308604 C -2.7881950312062536 2.316628470067981 -2.8621096875313596 2.3905349045180797 -2.9567478112232357 2.4154795913033693 C -3.0513859349151122 2.4404242780886585 -3.1521269862765964 2.4125535399684 -3.22048709866029 2.3425142160879986 C -3.3244240953137254 2.236024090224739 -3.3233864020507924 2.0657465340250156 -3.2181592444537315 1.9605310813398122 C -3.1129320868566706 1.8553156286546093 -2.942654416276577 1.8542968772253041 -2.8361758531163996 1.9582457192922225" fill="#bfe588" transform="matrix(1,0,0,1,0,0)" fill-rule="nonzero"></path></g><g clip-path="url(#aeecf4b0a-2b68-421a-bdd6-da7fb081717b5d7ac2fb-91ef-4e53-b304-cc82625e1c70)"><path d=" M -2.2470126066107388 2.5474089657978833 C -2.176980887603555 2.615776868995465 -2.1491213561801352 2.716521020099401 -2.1740765704403633 2.8111563683365217 C -2.199031784700592 2.9057917165736424 -2.272946441025698 2.979698151023741 -2.3675845647175744 3.0046428378090306 C -2.4622226884094505 3.0295875245943202 -2.562963739770935 3.001716786474062 -2.6313238521546287 2.931677462593661 C -2.735260848808064 2.8251873367304 -2.7342231555451306 2.654909780530678 -2.6289959979480697 2.5496943278454745 C -2.523768840351009 2.444478875160271 -2.353491169770915 2.4434601237309654 -2.2470126066107383 2.5474089657978842" fill="#bfe588" transform="matrix(1,0,0,1,0,0)" fill-rule="nonzero"></path></g><g clip-path="url(#aeecf4b0a-2b68-421a-bdd6-da7fb081717b5d7ac2fb-91ef-4e53-b304-cc82625e1c70)"><path d=" M -3.4252963508739485 0.19084147727146483 C -3.3552646318667643 0.25920938046904607 -3.327405100443345 0.3599535315729825 -3.352360314703573 0.45458887981010343 C -3.377315528963801 0.5492242280472244 -3.4512301852889076 0.6231306624973225 -3.5458683089807836 0.6480753492826119 C -3.6405064326726597 0.6730200360679013 -3.7412474840341443 0.6451492979476436 -3.809607596417838 0.5751099740672421 C -3.913544593071273 0.4686198482039814 -3.9125068998083403 0.2983422920042589 -3.8072797422112794 0.19312683931905572 C -3.7020525846142185 0.08791138663385256 -3.531774914034125 0.08689263520454715 -3.4252963508739476 0.1908414772714655" fill="#bfe588" transform="matrix(1,0,0,1,0,0)" fill-rule="nonzero"></path></g><g clip-path="url(#aeecf4b0a-2b68-421a-bdd6-da7fb081717b5d7ac2fb-91ef-4e53-b304-cc82625e1c70)"><path d=" M -2.8361331043682867 0.7800047237771262 C -2.766101385361103 0.8483726269747074 -2.738241853937683 0.9491167780786438 -2.763197068197911 1.0437521263157645 C -2.7881522824581397 1.1383874745528857 -2.862066938783246 1.2122939090029838 -2.9567050624751223 1.2372385957882734 C -3.0513431861669984 1.2621832825735626 -3.1520842375284825 1.2343125444533052 -3.2204443499121767 1.1642732205729036 C -3.3243813465656116 1.057783094709643 -3.3233436533026786 0.8875055385099202 -3.218116495705618 0.7822900858247168 C -3.112889338108557 0.6770746331395137 -2.942611667528463 0.6760558817102085 -2.8361331043682863 0.7800047237771268" fill="#bfe588" transform="matrix(1,0,0,1,0,0)" fill-rule="nonzero"></path></g><g clip-path="url(#aeecf4b0a-2b68-421a-bdd6-da7fb081717b5d7ac2fb-91ef-4e53-b304-cc82625e1c70)"><path d=" M -2.2470126066107388 1.369125221534674 C -2.176980887603555 1.4374931247322555 -2.1491213561801352 1.5382372758361917 -2.1740765704403633 1.6328726240733125 C -2.199031784700592 1.7275079723104336 -2.272946441025698 1.8014144067605322 -2.3675845647175744 1.8263590935458214 C -2.4622226884094505 1.8513037803311105 -2.562963739770935 1.8234330422108531 -2.6313238521546287 1.7533937183304515 C -2.735260848808064 1.6469035924671909 -2.7342231555451306 1.4766260362674681 -2.6289959979480697 1.3714105835822648 C -2.523768840351009 1.2661951308970614 -2.353491169770915 1.2651763794677562 -2.2470126066107383 1.369125221534675" fill="#bfe588" transform="matrix(1,0,0,1,0,0)" fill-rule="nonzero"></path></g><g clip-path="url(#aeecf4b0a-2b68-421a-bdd6-da7fb081717b5d7ac2fb-91ef-4e53-b304-cc82625e1c70)"><path d=" M -1.6578921088531917 1.9582457192922216 C -1.587860389846008 2.026613622489803 -1.5600008584225882 2.1273577735937392 -1.5849560726828162 2.2219931218308604 C -1.6099112869430443 2.316628470067981 -1.6838259432681508 2.3905349045180797 -1.778464066960027 2.4154795913033693 C -1.873102190651903 2.4404242780886585 -1.9738432420133876 2.4125535399684 -2.0422033543970817 2.3425142160879986 C -2.1461403510505166 2.236024090224739 -2.1451026577875836 2.0657465340250156 -2.0398755001905227 1.9605310813398122 C -1.9346483425934617 1.8553156286546093 -1.764370672013368 1.8542968772253041 -1.6578921088531908 1.9582457192922225" fill="#bfe588" transform="matrix(1,0,0,1,0,0)" fill-rule="nonzero"></path></g><g clip-path="url(#aeecf4b0a-2b68-421a-bdd6-da7fb081717b5d7ac2fb-91ef-4e53-b304-cc82625e1c70)"><path d=" M -2.8361331043682867 -0.39827902048608355 C -2.766101385361103 -0.3299111172885022 -2.738241853937683 -0.22916696618456578 -2.763197068197911 -0.13453161794744484 C -2.7881522824581397 -0.039896269710323784 -2.862066938783246 0.03401016473977436 -2.9567050624751223 0.058954851525063745 C -3.0513431861669984 0.08389953831035313 -3.1520842375284825 0.056028800190095485 -3.2204443499121767 -0.014010523690306309 C -3.3243813465656116 -0.12050064955356676 -3.3233436533026786 -0.2907782057532894 -3.218116495705618 -0.39599365843849266 C -3.112889338108557 -0.5012091111236959 -2.942611667528463 -0.5022278625530011 -2.8361331043682863 -0.39827902048608277" fill="#bfe588" transform="matrix(1,0,0,1,0,0)" fill-rule="nonzero"></path></g><g clip-path="url(#aeecf4b0a-2b68-421a-bdd6-da7fb081717b5d7ac2fb-91ef-4e53-b304-cc82625e1c70)"><path d=" M -2.2470126066107388 0.19084147727146483 C -2.176980887603555 0.25920938046904607 -2.1491213561801352 0.3599535315729825 -2.1740765704403633 0.45458887981010343 C -2.199031784700592 0.5492242280472244 -2.272946441025698 0.6231306624973225 -2.3675845647175744 0.6480753492826119 C -2.4622226884094505 0.6730200360679013 -2.562963739770935 0.6451492979476436 -2.6313238521546287 0.5751099740672421 C -2.735260848808064 0.4686198482039814 -2.7342231555451306 0.2983422920042589 -2.6289959979480697 0.19312683931905572 C -2.523768840351009 0.08791138663385256 -2.353491169770915 0.08689263520454715 -2.2470126066107383 0.1908414772714655" fill="#bfe588" transform="matrix(1,0,0,1,0,0)" fill-rule="nonzero"></path></g><g clip-path="url(#aeecf4b0a-2b68-421a-bdd6-da7fb081717b5d7ac2fb-91ef-4e53-b304-cc82625e1c70)"><path d=" M -1.6578921088531917 0.7799619750290123 C -1.587860389846008 0.8483298782265938 -1.5600008584225882 0.94907402933053 -1.5849560726828162 1.0437093775676507 C -1.6099112869430443 1.1383447258047719 -1.6838259432681508 1.21225116025487 -1.778464066960027 1.2371958470401596 C -1.873102190651903 1.2621405338254488 -1.9738432420133876 1.2342697957051914 -2.0422033543970817 1.1642304718247898 C -2.1461403510505166 1.057740345961529 -2.1451026577875836 0.8874627897618064 -2.0398755001905227 0.7822473370766032 C -1.9346483425934617 0.6770318843913998 -1.764370672013368 0.6760131329620946 -1.6578921088531908 0.7799619750290132" fill="#bfe588" transform="matrix(1,0,0,1,0,0)" fill-rule="nonzero"></path></g><g clip-path="url(#aeecf4b0a-2b68-421a-bdd6-da7fb081717b5d7ac2fb-91ef-4e53-b304-cc82625e1c70)"><path d=" M -1.0687288623475295 1.369125221534674 C -0.9986971433403449 1.4374931247322555 -0.9708376119169255 1.5382372758361917 -0.995792826177154 1.6328726240733125 C -1.020748040437382 1.7275079723104336 -1.0946626967624886 1.8014144067605322 -1.1893008204543647 1.8263590935458214 C -1.2839389441462408 1.8513037803311105 -1.3846799955077254 1.8234330422108531 -1.4530401078914195 1.7533937183304515 C -1.5569771045448544 1.6469035924671909 -1.555939411281921 1.4766260362674681 -1.4507122536848605 1.3714105835822648 C -1.345485096087799 1.2661951308970614 -1.1752074255077054 1.2651763794677562 -1.0687288623475286 1.369125221534675" fill="#bfe588" transform="matrix(1,0,0,1,0,0)" fill-rule="nonzero"></path></g><g clip-path="url(#aeecf4b0a-2b68-421a-bdd6-da7fb081717b5d7ac2fb-91ef-4e53-b304-cc82625e1c70)"><path d=" M -2.2470126066107388 -0.9874422669917449 C -2.176980887603555 -0.9190743637941635 -2.1491213561801352 -0.8183302126902271 -2.1740765704403633 -0.7236948644531063 C -2.199031784700592 -0.6290595162159851 -2.272946441025698 -0.555153081765887 -2.3675845647175744 -0.5302083949805975 C -2.4622226884094505 -0.5052637081953082 -2.562963739770935 -0.5331344463155661 -2.6313238521546287 -0.6031737701959675 C -2.735260848808064 -0.7096638960592281 -2.7342231555451306 -0.8799414522589507 -2.6289959979480697 -0.985156904944154 C -2.523768840351009 -1.0903723576293571 -2.353491169770915 -1.0913911090586625 -2.2470126066107383 -0.9874422669917442" fill="#bfe588" transform="matrix(1,0,0,1,0,0)" fill-rule="nonzero"></path></g><g clip-path="url(#aeecf4b0a-2b68-421a-bdd6-da7fb081717b5d7ac2fb-91ef-4e53-b304-cc82625e1c70)"><path d=" M -1.6578493601050774 -0.39827902048608355 C -1.5878176410978937 -0.3299111172885022 -1.559958109674474 -0.22916696618456578 -1.584913323934702 -0.13453161794744484 C -1.6098685381949305 -0.039896269710323784 -1.6837831945200366 0.03401016473977436 -1.778421318211913 0.058954851525063745 C -1.8730594419037891 0.08389953831035313 -1.9738004932652737 0.056028800190095485 -2.0421606056489674 -0.014010523690306309 C -2.1460976023024023 -0.12050064955356676 -2.1450599090394693 -0.2907782057532894 -2.0398327514424084 -0.39599365843849266 C -1.9346055938453475 -0.5012091111236959 -1.7643279232652538 -0.5022278625530011 -1.657849360105077 -0.39827902048608277" fill="#bfe588" transform="matrix(1,0,0,1,0,0)" fill-rule="nonzero"></path></g><g clip-path="url(#aeecf4b0a-2b68-421a-bdd6-da7fb081717b5d7ac2fb-91ef-4e53-b304-cc82625e1c70)"><path d=" M -1.0687288623475295 0.19084147727146483 C -0.9986971433403449 0.25920938046904607 -0.9708376119169255 0.3599535315729825 -0.995792826177154 0.45458887981010343 C -1.020748040437382 0.5492242280472244 -1.0946626967624886 0.6231306624973225 -1.1893008204543647 0.6480753492826119 C -1.2839389441462408 0.6730200360679013 -1.3846799955077254 0.6451492979476436 -1.4530401078914195 0.5751099740672421 C -1.5569771045448544 0.4686198482039814 -1.555939411281921 0.2983422920042589 -1.4507122536848605 0.19312683931905572 C -1.345485096087799 0.08791138663385256 -1.1752074255077054 0.08689263520454715 -1.0687288623475286 0.1908414772714655" fill="#bfe588" transform="matrix(1,0,0,1,0,0)" fill-rule="nonzero"></path></g><g clip-path="url(#aeecf4b0a-2b68-421a-bdd6-da7fb081717b5d7ac2fb-91ef-4e53-b304-cc82625e1c70)"><path d=" M -0.4796083645899816 0.7799619750290123 C -0.4095766455827974 0.8483298782265938 -0.38171711415937803 0.94907402933053 -0.40667232841960654 1.0437093775676507 C -0.43162754267983416 1.1383447258047719 -0.5055421990049411 1.21225116025487 -0.6001803226968172 1.2371958470401596 C -0.6948184463886933 1.2621405338254488 -0.7955594977501779 1.2342697957051914 -0.8639196101338711 1.1642304718247898 C -0.9678566067873065 1.057740345961529 -0.9668189135243734 0.8874627897618064 -0.8615917559273125 0.7822473370766032 C -0.756364598330252 0.6770318843913998 -0.5860869277501579 0.6760131329620946 -0.47960836458998113 0.7799619750290132" fill="#bfe588" transform="matrix(1,0,0,1,0,0)" fill-rule="nonzero"></path></g><g clip-path="url(#SvgjsClipPath527405d7ac2fb-91ef-4e53-b304-cc82625e1c70)"><path d=" M -3.028253040609834 1.0361075359140868 L -4.206536784873044 1.0361075359140868 L -4.206536784873044 0.9081177840610934 L -3.028253040609834 0.9081177840610934 Z" fill="#bfe588" transform="matrix(1,0,0,1,0,0)" fill-rule="nonzero"></path></g><g clip-path="url(#SvgjsClipPath527405d7ac2fb-91ef-4e53-b304-cc82625e1c70)"><path d=" M -1.8499877250573928 1.0361075359140868 L -3.028271469320602 1.0361075359140868 L -3.028271469320602 0.9081177840610934 L -1.8499877250573928 0.9081177840610934 Z" fill="#bfe588" transform="matrix(1,0,0,1,0,0)" fill-rule="nonzero"></path></g><g clip-path="url(#SvgjsClipPath527405d7ac2fb-91ef-4e53-b304-cc82625e1c70)"><path d=" M -2.3938814070446477 2.694271497539696 L -2.4843805068017573 2.784770597296806 L -3.073543753307419 2.195650099539258 L -2.9830019048021956 2.1051509997821483 Z" fill="#bfe588" transform="matrix(1,0,0,1,0,0)" fill-rule="nonzero"></path></g><g clip-path="url(#SvgjsClipPath527405d7ac2fb-91ef-4e53-b304-cc82625e1c70)"><path d=" M -0.6142038251212476 1.0051359904767079 L -1.2033670716269098 1.5942992369823696 L -1.293866171384019 1.5037573884771462 L -0.7047029248783576 0.9146368907195985 Z" fill="#bfe588" transform="matrix(1,0,0,1,0,0)" fill-rule="nonzero"></path></g><g clip-path="url(#SvgjsClipPath527405d7ac2fb-91ef-4e53-b304-cc82625e1c70)"><path d=" M -1.211864879467182 0.44697487813786574 L -2.4390959403207977 0.44697487813786574 L -2.4390959403207977 0.3189423775367586 L -1.211864879467182 0.31898512628487263 Z" fill="#bfe588" transform="matrix(1,0,0,1,0,0)" fill-rule="nonzero"></path></g><g clip-path="url(#SvgjsClipPath527405d7ac2fb-91ef-4e53-b304-cc82625e1c70)"><path d=" M -2.9830140648208676 -0.16094590140471476 L -3.57217731132653 0.4282173451009468 L -3.6626764110836394 0.33767549659572316 L -3.0735131645779776 -0.25144500116182456 Z" fill="#bfe588" transform="matrix(1,0,0,1,0,0)" fill-rule="nonzero"></path></g><g clip-path="url(#SvgjsClipPath527405d7ac2fb-91ef-4e53-b304-cc82625e1c70)"><path d=" M -1.8047166876271872 -0.2514238529826466 L -1.8952157873842967 -0.1609247532255368 L -2.484379033889958 -0.7500452509830848 L -2.3938371853847347 -0.8405443507401944 Z" fill="#bfe588" transform="matrix(1,0,0,1,0,0)" fill-rule="nonzero"></path></g><g clip-path="url(#SvgjsClipPath527405d7ac2fb-91ef-4e53-b304-cc82625e1c70)"><path d=" M -2.439120382833613 1.6252081320490679 L -3.6360853300225933 1.6252081320490679 L -3.6360853300225933 1.4972183801960743 L -2.439120382833613 1.4972183801960743 Z" fill="#bfe588" transform="matrix(1,0,0,1,0,0)" fill-rule="nonzero"></path></g><g clip-path="url(#SvgjsClipPath527405d7ac2fb-91ef-4e53-b304-cc82625e1c70)"><path d=" M -1.7860247507845455 2.1503778155524413 L -1.914014502637539 2.1503778155524413 L -1.914014502637539 0.9720940712892321 L -1.7860247507845455 0.9720940712892321 Z" fill="#bfe588" transform="matrix(1,0,0,1,0,0)" fill-rule="nonzero"></path></g></g><g><path d=" M 0.97875 0.6044999999999998 Q 1.038 0.6719999999999999 1.038 0.7799999999999998 Q 1.038 0.9134999999999999 0.9405 0.9854999999999998 Q 0.843 1.0574999999999999 0.651 1.0574999999999999 L 0.183 1.0574999999999999 L 0.183 0.00749999999999984 L 0.621 0.00749999999999984 Q 0.792 0.00749999999999984 0.88725 0.07724999999999982 Q 0.9825 0.1469999999999999 0.9825 0.2759999999999999 Q 0.9825 0.3659999999999999 0.93525 0.4274999999999999 Q 0.888 0.4889999999999999 0.807 0.5159999999999999 Q 0.9195 0.5369999999999999 0.97875 0.6044999999999998 M 0.2595 0.0734999999999999 L 0.2595 0.4919999999999999 L 0.618 0.4919999999999999 Q 0.756 0.4919999999999999 0.83025 0.43874999999999986 Q 0.9045 0.38549999999999984 0.9045 0.2819999999999999 Q 0.9045 0.17999999999999983 0.83025 0.12674999999999992 Q 0.756 0.0734999999999999 0.618 0.0734999999999999 L 0.2595 0.0734999999999999 M 0.88275 0.9382499999999999 Q 0.9615 0.8849999999999999 0.9615 0.7739999999999998 Q 0.9615 0.6629999999999998 0.88275 0.6104999999999998 Q 0.804 0.5579999999999998 0.651 0.5579999999999998 L 0.2595 0.5579999999999998 L 0.2595 0.9914999999999998 L 0.651 0.9914999999999998 Q 0.804 0.9914999999999998 0.88275 0.9382499999999999 M 1.311021240234375 0.00749999999999984 L 1.387521240234375 0.00749999999999984 L 1.387521240234375 1.0574999999999999 L 1.311021240234375 1.0574999999999999 L 1.311021240234375 0.00749999999999984 M 1.95449560546875 0.0764999999999999 L 1.57649560546875 0.0764999999999999 L 1.57649560546875 0.00749999999999984 L 2.40899560546875 0.00749999999999984 L 2.40899560546875 0.0764999999999999 L 2.03099560546875 0.0764999999999999 L 2.03099560546875 1.0574999999999999 L 1.95449560546875 1.0574999999999999 L 1.95449560546875 0.0764999999999999 M 2.634727294921875 1.0252499999999998 Q 2.530477294921875 0.9854999999999998 2.471977294921875 0.9224999999999999 L 2.506477294921875 0.8654999999999999 Q 2.561977294921875 0.9239999999999999 2.655727294921875 0.9607499999999999 Q 2.749477294921875 0.9974999999999998 2.852977294921875 0.9974999999999998 Q 3.002977294921875 0.9974999999999998 3.079477294921875 0.9404999999999999 Q 3.155977294921875 0.8834999999999998 3.155977294921875 0.7919999999999998 Q 3.155977294921875 0.7214999999999998 3.1154772949218748 0.6794999999999999 Q 3.074977294921875 0.6375 3.014977294921875 0.6149999999999999 Q 2.954977294921875 0.5924999999999998 2.852977294921875 0.5684999999999999 Q 2.737477294921875 0.5399999999999999 2.667727294921875 0.5129999999999999 Q 2.597977294921875 0.4859999999999999 2.549227294921875 0.42974999999999985 Q 2.500477294921875 0.37349999999999983 2.500477294921875 0.2789999999999999 Q 2.500477294921875 0.2024999999999999 2.540977294921875 0.13874999999999982 Q 2.581477294921875 0.07499999999999984 2.664727294921875 0.03749999999999987 Q 2.747977294921875 -2.220446049250313e-16 2.872477294921875 -2.220446049250313e-16 Q 2.959477294921875 -2.220446049250313e-16 3.043477294921875 0.025499999999999856 Q 3.127477294921875 0.050999999999999934 3.188977294921875 0.09449999999999992 L 3.160477294921875 0.15599999999999992 Q 3.097477294921875 0.11249999999999982 3.0217272949218748 0.08999999999999986 Q 2.945977294921875 0.0674999999999999 2.872477294921875 0.0674999999999999 Q 2.726977294921875 0.0674999999999999 2.651977294921875 0.1259999999999999 Q 2.5769772949218748 0.1844999999999999 2.5769772949218748 0.27749999999999986 Q 2.5769772949218748 0.34799999999999986 2.617477294921875 0.3899999999999999 Q 2.657977294921875 0.43199999999999983 2.717977294921875 0.4544999999999999 Q 2.777977294921875 0.47699999999999987 2.8814772949218748 0.5024999999999998 Q 2.996977294921875 0.5309999999999999 3.065977294921875 0.5579999999999998 Q 3.134977294921875 0.5849999999999999 3.183727294921875 0.6397499999999998 Q 3.2324772949218747 0.6944999999999999 3.2324772949218747 0.7874999999999999 Q 3.2324772949218747 0.8639999999999999 3.191227294921875 0.9269999999999998 Q 3.149977294921875 0.9899999999999999 3.064477294921875 1.0274999999999999 Q 2.978977294921875 1.065 2.854477294921875 1.065 Q 2.738977294921875 1.065 2.634727294921875 1.0252499999999998 M 4.61551904296875 1.0724999999999998 L 4.46401904296875 0.9134999999999999 Q 4.39951904296875 0.9884999999999999 4.31101904296875 1.0267499999999998 Q 4.2225190429687505 1.065 4.11451904296875 1.065 Q 4.01551904296875 1.065 3.93751904296875 1.0319999999999998 Q 3.85951904296875 0.9989999999999999 3.81601904296875 0.9389999999999998 Q 3.77251904296875 0.8789999999999999 3.77251904296875 0.8024999999999999 Q 3.77251904296875 0.7109999999999999 3.83401904296875 0.6352499999999999 Q 3.89551904296875 0.5594999999999999 4.04401904296875 0.4724999999999999 L 4.04251904296875 0.4694999999999999 Q 3.96451904296875 0.38849999999999985 3.93601904296875 0.3337499999999999 Q 3.90751904296875 0.2789999999999999 3.90751904296875 0.21599999999999986 Q 3.90751904296875 0.11849999999999983 3.97501904296875 0.05999999999999983 Q 4.04251904296875 0.0014999999999998348 4.15651904296875 0.0014999999999998348 Q 4.26301904296875 0.0014999999999998348 4.32526904296875 0.054749999999999854 Q 4.38751904296875 0.10799999999999987 4.38751904296875 0.20099999999999985 Q 4.38751904296875 0.2789999999999999 4.33426904296875 0.34124999999999983 Q 4.28101904296875 0.40349999999999986 4.14751904296875 0.4814999999999998 L 4.4580190429687505 0.8099999999999998 Q 4.50901904296875 0.7199999999999999 4.53301904296875 0.5969999999999999 L 4.59451904296875 0.6164999999999998 Q 4.56451904296875 0.7619999999999999 4.5045190429687505 0.8579999999999999 L 4.66051904296875 1.023 L 4.61551904296875 1.0724999999999998 M 4.00351904296875 0.3112499999999999 Q 4.02901904296875 0.3569999999999999 4.10401904296875 0.4364999999999999 Q 4.22851904296875 0.3644999999999998 4.27501904296875 0.3142499999999999 Q 4.32151904296875 0.2639999999999999 4.32151904296875 0.2024999999999999 Q 4.32151904296875 0.13649999999999984 4.27801904296875 0.09824999999999984 Q 4.23451904296875 0.05999999999999983 4.15651904296875 0.05999999999999983 Q 4.07251904296875 0.05999999999999983 4.02526904296875 0.1027499999999999 Q 3.97801904296875 0.14549999999999985 3.97801904296875 0.21599999999999986 Q 3.97801904296875 0.26549999999999985 4.00351904296875 0.3112499999999999 M 4.41901904296875 0.8654999999999999 L 4.08751904296875 0.5159999999999999 Q 3.94951904296875 0.5969999999999999 3.89776904296875 0.6584999999999999 Q 3.84601904296875 0.7199999999999999 3.84601904296875 0.7964999999999999 Q 3.84601904296875 0.8879999999999999 3.92176904296875 0.9449999999999998 Q 3.99751904296875 1.0019999999999998 4.11751904296875 1.0019999999999998 Q 4.30951904296875 1.0019999999999998 4.41901904296875 0.8654999999999999 M 6.041341552734375 0.6044999999999998 Q 6.100591552734375 0.6719999999999999 6.100591552734375 0.7799999999999998 Q 6.100591552734375 0.9134999999999999 6.003091552734375 0.9854999999999998 Q 5.905591552734375 1.0574999999999999 5.713591552734375 1.0574999999999999 L 5.245591552734375 1.0574999999999999 L 5.245591552734375 0.00749999999999984 L 5.683591552734375 0.00749999999999984 Q 5.854591552734375 0.00749999999999984 5.949841552734375 0.07724999999999982 Q 6.045091552734375 0.1469999999999999 6.045091552734375 0.2759999999999999 Q 6.045091552734375 0.3659999999999999 5.997841552734375 0.4274999999999999 Q 5.950591552734375 0.4889999999999999 5.869591552734375 0.5159999999999999 Q 5.982091552734375 0.5369999999999999 6.041341552734375 0.6044999999999998 M 5.322091552734375 0.0734999999999999 L 5.322091552734375 0.4919999999999999 L 5.680591552734375 0.4919999999999999 Q 5.818591552734375 0.4919999999999999 5.892841552734375 0.43874999999999986 Q 5.967091552734375 0.38549999999999984 5.967091552734375 0.2819999999999999 Q 5.967091552734375 0.17999999999999983 5.892841552734375 0.12674999999999992 Q 5.818591552734375 0.0734999999999999 5.680591552734375 0.0734999999999999 L 5.322091552734375 0.0734999999999999 M 5.945341552734375 0.9382499999999999 Q 6.024091552734375 0.8849999999999999 6.024091552734375 0.7739999999999998 Q 6.024091552734375 0.6629999999999998 5.945341552734375 0.6104999999999998 Q 5.866591552734375 0.5579999999999998 5.713591552734375 0.5579999999999998 L 5.322091552734375 0.5579999999999998 L 5.322091552734375 0.9914999999999998 L 5.713591552734375 0.9914999999999998 Q 5.866591552734375 0.9914999999999998 5.945341552734375 0.9382499999999999 M 6.6750908203125 0.696 L 6.6750908203125 1.0574999999999999 L 6.5985908203125 1.0574999999999999 L 6.5985908203125 0.696 L 6.1755908203125 0.00749999999999984 L 6.2595908203125 0.00749999999999984 L 6.6390908203125 0.6255 L 7.0185908203125 0.00749999999999984 L 7.0980908203125 0.00749999999999984 L 6.6750908203125 0.696 M 7.485104736328125 0.0764999999999999 L 7.107104736328125 0.0764999999999999 L 7.107104736328125 0.00749999999999984 L 7.939604736328125 0.00749999999999984 L 7.939604736328125 0.0764999999999999 L 7.561604736328125 0.0764999999999999 L 7.561604736328125 1.0574999999999999 L 7.485104736328125 1.0574999999999999 L 7.485104736328125 0.0764999999999999 M 8.853087158203126 0.9884999999999999 L 8.853087158203126 1.0574999999999999 L 8.128587158203125 1.0574999999999999 L 8.128587158203125 0.00749999999999984 L 8.830587158203125 0.00749999999999984 L 8.830587158203125 0.0764999999999999 L 8.205087158203124 0.0764999999999999 L 8.205087158203124 0.4904999999999998 L 8.764587158203126 0.4904999999999998 L 8.764587158203126 0.5579999999999998 L 8.205087158203124 0.5579999999999998 L 8.205087158203124 0.9884999999999999 L 8.853087158203126 0.9884999999999999 M 9.1883466796875 1.0252499999999998 Q 9.0840966796875 0.9854999999999998 9.0255966796875 0.9224999999999999 L 9.0600966796875 0.8654999999999999 Q 9.1155966796875 0.9239999999999999 9.2093466796875 0.9607499999999999 Q 9.3030966796875 0.9974999999999998 9.4065966796875 0.9974999999999998 Q 9.5565966796875 0.9974999999999998 9.6330966796875 0.9404999999999999 Q 9.7095966796875 0.8834999999999998 9.7095966796875 0.7919999999999998 Q 9.7095966796875 0.7214999999999998 9.6690966796875 0.6794999999999999 Q 9.6285966796875 0.6375 9.5685966796875 0.6149999999999999 Q 9.5085966796875 0.5924999999999998 9.4065966796875 0.5684999999999999 Q 9.2910966796875 0.5399999999999999 9.2213466796875 0.5129999999999999 Q 9.1515966796875 0.4859999999999999 9.1028466796875 0.42974999999999985 Q 9.0540966796875 0.37349999999999983 9.0540966796875 0.2789999999999999 Q 9.0540966796875 0.2024999999999999 9.0945966796875 0.13874999999999982 Q 9.1350966796875 0.07499999999999984 9.2183466796875 0.03749999999999987 Q 9.3015966796875 -2.220446049250313e-16 9.4260966796875 -2.220446049250313e-16 Q 9.5130966796875 -2.220446049250313e-16 9.5970966796875 0.025499999999999856 Q 9.6810966796875 0.050999999999999934 9.7425966796875 0.09449999999999992 L 9.7140966796875 0.15599999999999992 Q 9.6510966796875 0.11249999999999982 9.5753466796875 0.08999999999999986 Q 9.4995966796875 0.0674999999999999 9.4260966796875 0.0674999999999999 Q 9.2805966796875 0.0674999999999999 9.2055966796875 0.1259999999999999 Q 9.1305966796875 0.1844999999999999 9.1305966796875 0.27749999999999986 Q 9.1305966796875 0.34799999999999986 9.1710966796875 0.3899999999999999 Q 9.2115966796875 0.43199999999999983 9.2715966796875 0.4544999999999999 Q 9.3315966796875 0.47699999999999987 9.4350966796875 0.5024999999999998 Q 9.5505966796875 0.5309999999999999 9.6195966796875 0.5579999999999998 Q 9.6885966796875 0.5849999999999999 9.7373466796875 0.6397499999999998 Q 9.7860966796875 0.6944999999999999 9.7860966796875 0.7874999999999999 Q 9.7860966796875 0.8639999999999999 9.7448466796875 0.9269999999999998 Q 9.7035966796875 0.9899999999999999 9.6180966796875 1.0274999999999999 Q 9.5325966796875 1.065 9.4080966796875 1.065 Q 9.2925966796875 1.065 9.1883466796875 1.0252499999999998" fill="#173054" fill-rule="nonzero"></path></g><g><path d=" M 0.11812500000000001 1.929975 Q 0.0645 1.9112250000000002 0.035250000000000004 1.8804750000000001 L 0.057 1.837725 Q 0.0855 1.866225 0.13275 1.88385 Q 0.18 1.901475 0.23025 1.901475 Q 0.30075 1.901475 0.336 1.8756000000000002 Q 0.37125 1.849725 0.37125 1.808475 Q 0.37125 1.7769750000000002 0.352125 1.7582250000000001 Q 0.333 1.739475 0.30525 1.7293500000000002 Q 0.2775 1.719225 0.228 1.707225 Q 0.16875 1.692225 0.1335 1.67835 Q 0.09825 1.6644750000000001 0.073125 1.6359750000000002 Q 0.048 1.607475 0.048 1.5587250000000001 Q 0.048 1.5189750000000002 0.069 1.48635 Q 0.09 1.4537250000000002 0.1335 1.434225 Q 0.177 1.4147250000000002 0.2415 1.4147250000000002 Q 0.28650000000000003 1.4147250000000002 0.329625 1.4271 Q 0.37275 1.439475 0.40425 1.4612250000000002 L 0.3855 1.5054750000000001 Q 0.3525 1.4837250000000002 0.315 1.4728500000000002 Q 0.2775 1.461975 0.2415 1.461975 Q 0.17250000000000001 1.461975 0.137625 1.4886000000000001 Q 0.10275000000000001 1.515225 0.10275000000000001 1.557225 Q 0.10275000000000001 1.5887250000000002 0.121875 1.60785 Q 0.14100000000000001 1.626975 0.169875 1.6371000000000002 Q 0.19875 1.6472250000000002 0.2475 1.6592250000000002 Q 0.30525 1.673475 0.340875 1.6873500000000001 Q 0.3765 1.701225 0.40125 1.7293500000000002 Q 0.426 1.7574750000000001 0.426 1.8054750000000002 Q 0.426 1.8452250000000001 0.404625 1.87785 Q 0.38325000000000004 1.9104750000000001 0.339 1.9296 Q 0.29475 1.948725 0.23025 1.948725 Q 0.17175 1.948725 0.11812500000000001 1.929975 M 1.09311767578125 1.419225 L 1.09311767578125 1.944225 L 1.03986767578125 1.944225 L 1.03986767578125 1.5242250000000002 L 0.8336176757812499 1.877475 L 0.80736767578125 1.877475 L 0.60111767578125 1.526475 L 0.60111767578125 1.944225 L 0.54786767578125 1.944225 L 0.54786767578125 1.419225 L 0.5936176757812499 1.419225 L 0.8216176757812499 1.808475 L 1.04736767578125 1.419225 L 1.09311767578125 1.419225 M 1.594505493164062 1.803975 L 1.302005493164062 1.803975 L 1.2390054931640622 1.944225 L 1.1812554931640622 1.944225 L 1.4212554931640622 1.419225 L 1.4760054931640623 1.419225 L 1.716005493164062 1.944225 L 1.657505493164062 1.944225 L 1.594505493164062 1.803975 M 1.5742554931640622 1.7589750000000002 L 1.448255493164062 1.4769750000000001 L 1.3222554931640622 1.7589750000000002 L 1.5742554931640622 1.7589750000000002 M 1.8041154785156246 1.419225 L 1.8596154785156247 1.419225 L 1.8596154785156247 1.896225 L 2.1536154785156247 1.896225 L 2.1536154785156247 1.944225 L 1.8041154785156246 1.944225 L 1.8041154785156246 1.419225 M 2.246982421875 1.419225 L 2.3024824218749997 1.419225 L 2.3024824218749997 1.896225 L 2.596482421875 1.896225 L 2.596482421875 1.944225 L 2.246982421875 1.944225 L 2.246982421875 1.419225 M 2.939992309570312 1.890225 Q 2.8829923095703123 1.831725 2.8829923095703123 1.719975 L 2.8829923095703123 1.419225 L 2.938492309570312 1.419225 L 2.938492309570312 1.7177250000000002 Q 2.938492309570312 1.809225 2.9797423095703124 1.854225 Q 3.020992309570312 1.8992250000000002 3.0989923095703125 1.8992250000000002 Q 3.1777423095703123 1.8992250000000002 3.218992309570312 1.854225 Q 3.2602423095703124 1.809225 3.2602423095703124 1.7177250000000002 L 3.2602423095703124 1.419225 L 3.314242309570312 1.419225 L 3.314242309570312 1.719975 Q 3.314242309570312 1.831725 3.2576173095703123 1.890225 Q 3.2009923095703123 1.948725 3.0989923095703125 1.948725 Q 2.996992309570312 1.948725 2.939992309570312 1.890225 M 3.9213614501953122 1.419225 L 3.9213614501953122 1.944225 L 3.8756114501953123 1.944225 L 3.5381114501953124 1.5182250000000002 L 3.5381114501953124 1.944225 L 3.4826114501953125 1.944225 L 3.4826114501953125 1.419225 L 3.5283614501953124 1.419225 L 3.8666114501953124 1.8452250000000001 L 3.8666114501953124 1.419225 L 3.9213614501953122 1.419225 M 4.093477661132812 1.419225 L 4.148977661132812 1.419225 L 4.148977661132812 1.944225 L 4.093477661132812 1.944225 L 4.093477661132812 1.419225 M 4.423104125976562 1.467225 L 4.238604125976562 1.467225 L 4.238604125976562 1.419225 L 4.663104125976562 1.419225 L 4.663104125976562 1.467225 L 4.478604125976562 1.467225 L 4.478604125976562 1.944225 L 4.423104125976562 1.944225 L 4.423104125976562 1.467225 M 4.777095336914062 1.929975 Q 4.723470336914062 1.9112250000000002 4.6942203369140625 1.8804750000000001 L 4.715970336914062 1.837725 Q 4.744470336914062 1.866225 4.791720336914062 1.88385 Q 4.838970336914062 1.901475 4.889220336914062 1.901475 Q 4.959720336914062 1.901475 4.994970336914062 1.8756000000000002 Q 5.030220336914062 1.849725 5.030220336914062 1.808475 Q 5.030220336914062 1.7769750000000002 5.011095336914062 1.7582250000000001 Q 4.991970336914062 1.739475 4.964220336914062 1.7293500000000002 Q 4.936470336914062 1.719225 4.886970336914062 1.707225 Q 4.827720336914062 1.692225 4.792470336914062 1.67835 Q 4.757220336914062 1.6644750000000001 4.732095336914062 1.6359750000000002 Q 4.706970336914062 1.607475 4.706970336914062 1.5587250000000001 Q 4.706970336914062 1.5189750000000002 4.727970336914062 1.48635 Q 4.748970336914062 1.4537250000000002 4.792470336914062 1.434225 Q 4.835970336914062 1.4147250000000002 4.900470336914062 1.4147250000000002 Q 4.945470336914062 1.4147250000000002 4.988595336914062 1.4271 Q 5.031720336914062 1.439475 5.063220336914062 1.4612250000000002 L 5.044470336914062 1.5054750000000001 Q 5.011470336914062 1.4837250000000002 4.973970336914062 1.4728500000000002 Q 4.936470336914062 1.461975 4.900470336914062 1.461975 Q 4.831470336914062 1.461975 4.796595336914062 1.4886000000000001 Q 4.761720336914062 1.515225 4.761720336914062 1.557225 Q 4.761720336914062 1.5887250000000002 4.780845336914062 1.60785 Q 4.799970336914062 1.626975 4.828845336914062 1.6371000000000002 Q 4.8577203369140625 1.6472250000000002 4.906470336914062 1.6592250000000002 Q 4.964220336914062 1.673475 4.999845336914062 1.6873500000000001 Q 5.035470336914062 1.701225 5.060220336914062 1.7293500000000002 Q 5.084970336914062 1.7574750000000001 5.084970336914062 1.8054750000000002 Q 5.084970336914062 1.8452250000000001 5.063595336914062 1.87785 Q 5.042220336914062 1.9104750000000001 4.9979703369140625 1.9296 Q 4.953720336914062 1.948725 4.889220336914062 1.948725 Q 4.830720336914062 1.948725 4.777095336914062 1.929975 M 5.49260595703125 1.91385 Q 5.429230957031249 1.878975 5.39360595703125 1.818225 Q 5.357980957031249 1.7574750000000001 5.357980957031249 1.6817250000000001 Q 5.357980957031249 1.6059750000000002 5.39360595703125 1.545225 Q 5.429230957031249 1.4844750000000002 5.49260595703125 1.4496 Q 5.55598095703125 1.4147250000000002 5.63398095703125 1.4147250000000002 Q 5.711980957031249 1.4147250000000002 5.77460595703125 1.4492250000000002 Q 5.83723095703125 1.4837250000000002 5.873230957031249 1.54485 Q 5.90923095703125 1.6059750000000002 5.90923095703125 1.6817250000000001 Q 5.90923095703125 1.7574750000000001 5.873230957031249 1.8186 Q 5.83723095703125 1.879725 5.77460595703125 1.914225 Q 5.711980957031249 1.948725 5.63398095703125 1.948725 Q 5.55598095703125 1.948725 5.49260595703125 1.91385 M 5.74648095703125 1.8711000000000002 Q 5.79673095703125 1.842975 5.825230957031249 1.7931000000000001 Q 5.8537309570312495 1.743225 5.8537309570312495 1.6817250000000001 Q 5.8537309570312495 1.620225 5.825230957031249 1.5703500000000001 Q 5.79673095703125 1.520475 5.74648095703125 1.49235 Q 5.69623095703125 1.464225 5.63398095703125 1.464225 Q 5.571730957031249 1.464225 5.521105957031249 1.49235 Q 5.47048095703125 1.520475 5.44160595703125 1.5703500000000001 Q 5.41273095703125 1.620225 5.41273095703125 1.6817250000000001 Q 5.41273095703125 1.743225 5.44160595703125 1.7931000000000001 Q 5.47048095703125 1.842975 5.521105957031249 1.8711000000000002 Q 5.571730957031249 1.8992250000000002 5.63398095703125 1.8992250000000002 Q 5.69623095703125 1.8992250000000002 5.74648095703125 1.8711000000000002 M 6.090347900390625 1.467225 L 6.090347900390625 1.673475 L 6.361847900390624 1.673475 L 6.361847900390624 1.721475 L 6.090347900390625 1.721475 L 6.090347900390625 1.944225 L 6.034847900390624 1.944225 L 6.034847900390624 1.419225 L 6.394847900390625 1.419225 L 6.394847900390625 1.467225 L 6.090347900390625 1.467225 M 6.796487548828125 1.91385 Q 6.7331125488281245 1.878975 6.697487548828125 1.818225 Q 6.6618625488281245 1.7574750000000001 6.6618625488281245 1.6817250000000001 Q 6.6618625488281245 1.6059750000000002 6.697487548828125 1.545225 Q 6.7331125488281245 1.4844750000000002 6.796487548828125 1.4496 Q 6.859862548828125 1.4147250000000002 6.937862548828125 1.4147250000000002 Q 7.0158625488281245 1.4147250000000002 7.078487548828125 1.4492250000000002 Q 7.141112548828125 1.4837250000000002 7.177112548828124 1.54485 Q 7.213112548828125 1.6059750000000002 7.213112548828125 1.6817250000000001 Q 7.213112548828125 1.7574750000000001 7.177112548828124 1.8186 Q 7.141112548828125 1.879725 7.078487548828125 1.914225 Q 7.0158625488281245 1.948725 6.937862548828125 1.948725 Q 6.859862548828125 1.948725 6.796487548828125 1.91385 M 7.050362548828125 1.8711000000000002 Q 7.100612548828125 1.842975 7.129112548828124 1.7931000000000001 Q 7.157612548828125 1.743225 7.157612548828125 1.6817250000000001 Q 7.157612548828125 1.620225 7.129112548828124 1.5703500000000001 Q 7.100612548828125 1.520475 7.050362548828125 1.49235 Q 7.000112548828125 1.464225 6.937862548828125 1.464225 Q 6.875612548828125 1.464225 6.824987548828124 1.49235 Q 6.774362548828125 1.520475 6.745487548828125 1.5703500000000001 Q 6.716612548828125 1.620225 6.716612548828125 1.6817250000000001 Q 6.716612548828125 1.743225 6.745487548828125 1.7931000000000001 Q 6.774362548828125 1.842975 6.824987548828124 1.8711000000000002 Q 6.875612548828125 1.8992250000000002 6.937862548828125 1.8992250000000002 Q 7.000112548828125 1.8992250000000002 7.050362548828125 1.8711000000000002 M 7.6972294921875 1.944225 L 7.5772294921875 1.7754750000000001 Q 7.5569794921875 1.777725 7.5352294921875 1.777725 L 7.3942294921875 1.777725 L 7.3942294921875 1.944225 L 7.3387294921874995 1.944225 L 7.3387294921874995 1.419225 L 7.5352294921875 1.419225 Q 7.6357294921875 1.419225 7.6927294921875 1.467225 Q 7.7497294921875 1.515225 7.7497294921875 1.5992250000000001 Q 7.7497294921875 1.660725 7.7186044921875 1.7031 Q 7.687479492187499 1.745475 7.6297294921875 1.7642250000000002 L 7.7579794921875 1.944225 L 7.6972294921875 1.944225 M 7.6529794921875 1.695975 Q 7.6942294921875 1.661475 7.6942294921875 1.5992250000000001 Q 7.6942294921875 1.5354750000000001 7.6529794921875 1.50135 Q 7.6117294921875 1.467225 7.5337294921875 1.467225 L 7.3942294921875 1.467225 L 7.3942294921875 1.7304750000000002 L 7.5337294921875 1.7304750000000002 Q 7.6117294921875 1.7304750000000002 7.6529794921875 1.695975 M 8.251871337890625 1.6817250000000001 L 8.305121337890625 1.6817250000000001 L 8.305121337890625 1.8819750000000002 Q 8.268371337890624 1.914225 8.218121337890626 1.931475 Q 8.167871337890626 1.948725 8.112371337890625 1.948725 Q 8.033621337890624 1.948725 7.970621337890625 1.914225 Q 7.907621337890625 1.879725 7.871621337890625 1.8186 Q 7.8356213378906245 1.7574750000000001 7.8356213378906245 1.6817250000000001 Q 7.8356213378906245 1.6059750000000002 7.871621337890625 1.54485 Q 7.907621337890625 1.4837250000000002 7.970621337890625 1.4492250000000002 Q 8.033621337890624 1.4147250000000002 8.113121337890625 1.4147250000000002 Q 8.173121337890624 1.4147250000000002 8.223371337890624 1.43385 Q 8.273621337890624 1.4529750000000001 8.308121337890626 1.490475 L 8.273621337890624 1.525725 Q 8.211371337890625 1.464225 8.115371337890625 1.464225 Q 8.051621337890625 1.464225 8.000246337890625 1.49235 Q 7.948871337890624 1.520475 7.919621337890625 1.5703500000000001 Q 7.890371337890625 1.620225 7.890371337890625 1.6817250000000001 Q 7.890371337890625 1.743225 7.919621337890625 1.7927250000000001 Q 7.948871337890624 1.842225 7.9998713378906245 1.8707250000000002 Q 8.050871337890625 1.8992250000000002 8.114621337890625 1.8992250000000002 Q 8.195621337890625 1.8992250000000002 8.251871337890625 1.8587250000000002 L 8.251871337890625 1.6817250000000001 M 8.792254028320313 1.803975 L 8.499754028320313 1.803975 L 8.436754028320314 1.944225 L 8.379004028320313 1.944225 L 8.619004028320314 1.419225 L 8.673754028320314 1.419225 L 8.913754028320314 1.944225 L 8.855254028320314 1.944225 L 8.792254028320313 1.803975 M 8.772004028320314 1.7589750000000002 L 8.646004028320313 1.4769750000000001 L 8.520004028320313 1.7589750000000002 L 8.772004028320314 1.7589750000000002 M 9.440614013671876 1.419225 L 9.440614013671876 1.944225 L 9.394864013671876 1.944225 L 9.057364013671876 1.5182250000000002 L 9.057364013671876 1.944225 L 9.001864013671875 1.944225 L 9.001864013671875 1.419225 L 9.047614013671875 1.419225 L 9.385864013671876 1.8452250000000001 L 9.385864013671876 1.419225 L 9.440614013671876 1.419225 M 9.612730224609376 1.419225 L 9.668230224609376 1.419225 L 9.668230224609376 1.944225 L 9.612730224609376 1.944225 L 9.612730224609376 1.419225 M 10.219106689453126 1.896225 L 10.219106689453126 1.944225 L 9.788606689453125 1.944225 L 9.788606689453125 1.9059750000000002 L 10.136606689453126 1.467225 L 9.793856689453126 1.467225 L 9.793856689453126 1.419225 L 10.210106689453125 1.419225 L 10.210106689453125 1.457475 L 9.862856689453126 1.896225 L 10.219106689453126 1.896225 M 10.700982421875 1.896225 L 10.700982421875 1.944225 L 10.329732421875 1.944225 L 10.329732421875 1.419225 L 10.689732421875 1.419225 L 10.689732421875 1.467225 L 10.385232421875001 1.467225 L 10.385232421875001 1.653975 L 10.656732421875 1.653975 L 10.656732421875 1.701225 L 10.385232421875001 1.701225 L 10.385232421875001 1.896225 L 10.700982421875 1.896225 M 10.832612182617188 1.419225 L 11.04636218261719 1.419225 Q 11.129612182617189 1.419225 11.19336218261719 1.4526000000000001 Q 11.257112182617188 1.485975 11.292362182617188 1.5456 Q 11.32761218261719 1.6052250000000001 11.32761218261719 1.6817250000000001 Q 11.32761218261719 1.7582250000000001 11.292362182617188 1.81785 Q 11.257112182617188 1.877475 11.19336218261719 1.9108500000000002 Q 11.129612182617189 1.944225 11.04636218261719 1.944225 L 10.832612182617188 1.944225 L 10.832612182617188 1.419225 M 11.043362182617189 1.896225 Q 11.112362182617188 1.896225 11.164112182617188 1.8688500000000001 Q 11.215862182617188 1.841475 11.244362182617188 1.7931000000000001 Q 11.272862182617189 1.744725 11.272862182617189 1.6817250000000001 Q 11.272862182617189 1.618725 11.244362182617188 1.5703500000000001 Q 11.215862182617188 1.521975 11.164112182617188 1.4946000000000002 Q 11.112362182617188 1.467225 11.043362182617189 1.467225 L 10.888112182617188 1.467225 L 10.888112182617188 1.896225 L 11.043362182617189 1.896225 M 11.813621704101564 1.697475 L 11.706371704101564 1.806225 L 11.706371704101564 1.944225 L 11.650871704101563 1.944225 L 11.650871704101563 1.419225 L 11.706371704101564 1.419225 L 11.706371704101564 1.736475 L 12.014621704101563 1.419225 L 12.078371704101563 1.419225 L 11.851121704101564 1.656975 L 12.094121704101564 1.944225 L 12.028121704101563 1.944225 L 11.813621704101564 1.697475 M 12.623995605468751 1.419225 L 12.623995605468751 1.944225 L 12.578245605468751 1.944225 L 12.240745605468751 1.5182250000000002 L 12.240745605468751 1.944225 L 12.18524560546875 1.944225 L 12.18524560546875 1.419225 L 12.23099560546875 1.419225 L 12.569245605468751 1.8452250000000001 L 12.569245605468751 1.419225 L 12.623995605468751 1.419225 M 12.88423681640625 1.91385 Q 12.820861816406252 1.878975 12.78523681640625 1.818225 Q 12.74961181640625 1.7574750000000001 12.74961181640625 1.6817250000000001 Q 12.74961181640625 1.6059750000000002 12.78523681640625 1.545225 Q 12.820861816406252 1.4844750000000002 12.88423681640625 1.4496 Q 12.947611816406251 1.4147250000000002 13.02561181640625 1.4147250000000002 Q 13.103611816406252 1.4147250000000002 13.16623681640625 1.4492250000000002 Q 13.228861816406251 1.4837250000000002 13.26486181640625 1.54485 Q 13.30086181640625 1.6059750000000002 13.30086181640625 1.6817250000000001 Q 13.30086181640625 1.7574750000000001 13.26486181640625 1.8186 Q 13.228861816406251 1.879725 13.16623681640625 1.914225 Q 13.103611816406252 1.948725 13.02561181640625 1.948725 Q 12.947611816406251 1.948725 12.88423681640625 1.91385 M 13.138111816406251 1.8711000000000002 Q 13.188361816406251 1.842975 13.21686181640625 1.7931000000000001 Q 13.245361816406252 1.743225 13.245361816406252 1.6817250000000001 Q 13.245361816406252 1.620225 13.21686181640625 1.5703500000000001 Q 13.188361816406251 1.520475 13.138111816406251 1.49235 Q 13.087861816406251 1.464225 13.02561181640625 1.464225 Q 12.963361816406252 1.464225 12.912736816406252 1.49235 Q 12.862111816406252 1.520475 12.83323681640625 1.5703500000000001 Q 12.804361816406251 1.620225 12.804361816406251 1.6817250000000001 Q 12.804361816406251 1.743225 12.83323681640625 1.7931000000000001 Q 12.862111816406252 1.842975 12.912736816406252 1.8711000000000002 Q 12.963361816406252 1.8992250000000002 13.02561181640625 1.8992250000000002 Q 13.087861816406251 1.8992250000000002 13.138111816406251 1.8711000000000002 M 14.131481689453127 1.419225 L 13.954481689453127 1.944225 L 13.895981689453127 1.944225 L 13.742231689453126 1.496475 L 13.587731689453125 1.944225 L 13.529981689453127 1.944225 L 13.352981689453125 1.419225 L 13.409981689453126 1.419225 L 13.561481689453126 1.8707250000000002 L 13.718231689453127 1.419225 L 13.769981689453127 1.419225 L 13.924481689453126 1.872975 L 14.078231689453126 1.419225 L 14.131481689453127 1.419225 M 14.233862915039063 1.419225 L 14.289362915039064 1.419225 L 14.289362915039064 1.896225 L 14.583362915039064 1.896225 L 14.583362915039064 1.944225 L 14.233862915039063 1.944225 L 14.233862915039063 1.419225 M 15.047979858398438 1.896225 L 15.047979858398438 1.944225 L 14.676729858398438 1.944225 L 14.676729858398438 1.419225 L 15.036729858398438 1.419225 L 15.036729858398438 1.467225 L 14.732229858398439 1.467225 L 14.732229858398439 1.653975 L 15.003729858398438 1.653975 L 15.003729858398438 1.701225 L 14.732229858398439 1.701225 L 14.732229858398439 1.896225 L 15.047979858398438 1.896225 M 15.179609619140626 1.419225 L 15.393359619140627 1.419225 Q 15.476609619140627 1.419225 15.540359619140627 1.4526000000000001 Q 15.604109619140626 1.485975 15.639359619140626 1.5456 Q 15.674609619140627 1.6052250000000001 15.674609619140627 1.6817250000000001 Q 15.674609619140627 1.7582250000000001 15.639359619140626 1.81785 Q 15.604109619140626 1.877475 15.540359619140627 1.9108500000000002 Q 15.476609619140627 1.944225 15.393359619140627 1.944225 L 15.179609619140626 1.944225 L 15.179609619140626 1.419225 M 15.390359619140627 1.896225 Q 15.459359619140626 1.896225 15.511109619140626 1.8688500000000001 Q 15.562859619140626 1.841475 15.591359619140626 1.7931000000000001 Q 15.619859619140627 1.744725 15.619859619140627 1.6817250000000001 Q 15.619859619140627 1.618725 15.591359619140626 1.5703500000000001 Q 15.562859619140626 1.521975 15.511109619140626 1.4946000000000002 Q 15.459359619140626 1.467225 15.390359619140627 1.467225 L 15.235109619140626 1.467225 L 15.235109619140626 1.896225 L 15.390359619140627 1.896225 M 16.169976196289063 1.6817250000000001 L 16.223226196289065 1.6817250000000001 L 16.223226196289065 1.8819750000000002 Q 16.186476196289064 1.914225 16.136226196289066 1.931475 Q 16.085976196289064 1.948725 16.030476196289065 1.948725 Q 15.951726196289064 1.948725 15.888726196289063 1.914225 Q 15.825726196289065 1.879725 15.789726196289063 1.8186 Q 15.753726196289064 1.7574750000000001 15.753726196289064 1.6817250000000001 Q 15.753726196289064 1.6059750000000002 15.789726196289063 1.54485 Q 15.825726196289065 1.4837250000000002 15.888726196289063 1.4492250000000002 Q 15.951726196289064 1.4147250000000002 16.031226196289065 1.4147250000000002 Q 16.091226196289064 1.4147250000000002 16.141476196289062 1.43385 Q 16.191726196289064 1.4529750000000001 16.226226196289065 1.490475 L 16.191726196289064 1.525725 Q 16.129476196289065 1.464225 16.033476196289065 1.464225 Q 15.969726196289065 1.464225 15.918351196289064 1.49235 Q 15.866976196289064 1.520475 15.837726196289063 1.5703500000000001 Q 15.808476196289064 1.620225 15.808476196289064 1.6817250000000001 Q 15.808476196289064 1.743225 15.837726196289063 1.7927250000000001 Q 15.866976196289064 1.842225 15.917976196289064 1.8707250000000002 Q 15.968976196289065 1.8992250000000002 16.032726196289065 1.8992250000000002 Q 16.113726196289065 1.8992250000000002 16.169976196289063 1.8587250000000002 L 16.169976196289063 1.6817250000000001 M 16.752358886718753 1.896225 L 16.752358886718753 1.944225 L 16.381108886718753 1.944225 L 16.381108886718753 1.419225 L 16.741108886718752 1.419225 L 16.741108886718752 1.467225 L 16.43660888671875 1.467225 L 16.43660888671875 1.653975 L 16.708108886718755 1.653975 L 16.708108886718755 1.701225 L 16.43660888671875 1.701225 L 16.43660888671875 1.896225 L 16.752358886718753 1.896225 M 16.85737097167969 1.935975 Q 16.84574597167969 1.923975 16.84574597167969 1.906725 Q 16.84574597167969 1.889475 16.85737097167969 1.87785 Q 16.868995971679688 1.866225 16.88549597167969 1.866225 Q 16.90199597167969 1.866225 16.91399597167969 1.87785 Q 16.92599597167969 1.889475 16.92599597167969 1.906725 Q 16.92599597167969 1.923975 16.91399597167969 1.935975 Q 16.90199597167969 1.947975 16.88549597167969 1.947975 Q 16.868995971679688 1.947975 16.85737097167969 1.935975" fill="#225777" fill-rule="nonzero"></path></g></g><defs><clipPath id="SvgjsClipPath52742"><path d=" M -4.478240765667226 -1.0670078828336127 h 4.078240765667226 v 4.078240765667226 h -4.078240765667226 Z"></path></clipPath><clipPath id="aeecf4b0a-2b68-421a-bdd6-da7fb081717b5d7ac2fb-91ef-4e53-b304-cc82625e1c70"><path d=" M -4.478240765667226 3.011232882833613 L -0.4000101956019142 3.011232882833613 L -0.4000101956019142 -1.0669976872316982 L -4.478240765667226 -1.0669976872316982 Z"></path></clipPath><clipPath id="SvgjsClipPath527405d7ac2fb-91ef-4e53-b304-cc82625e1c70"><path d=" M -4.478240765667226 -1.0670078828336127 L -0.40000000000000036 -1.0670078828336127 L -0.40000000000000036 3.011232882833613 L -4.478240765667226 3.011232882833613 Z"></path></clipPath></defs></svg>