<svg xmlns="http://www.w3.org/2000/svg" version="1.1" xmlns:xlink="http://www.w3.org/1999/xlink" viewBox="0 0 19.735474593335717 13.510492987630371"><g transform="matrix(0.8298323842875416,0,0,0.8298323842875416,2.8286935176533445,9.594329495754682)"><g transform="matrix(1,0,0,1,0,0)" clip-path="url(#SvgjsClipPath18403)"><g clip-path="url(#a091ec137-922a-4950-8f18-c73241367c7343d7ebf2-ec0f-456a-8570-078f59208dec)"><path d=" M 5.1832637357251246 -4.922976602151591 C 5.327010240972161 -4.779230101704278 5.383149643121369 -4.569715009470157 5.3305347722633245 -4.373353634637485 C 5.277919901405279 -4.176992259804813 5.124544208262811 -4.02361656713935 4.928182833266504 -3.9710016968919986 C 4.731821458270199 -3.918386826644647 4.522306366210673 -3.9745262294454555 4.378559866210418 -4.118272735139551 C 4.15634703675337 -4.340485572016329 4.15634703948069 -4.700763760044828 4.37855987355339 -4.92297659480862 C 4.600772707626089 -5.145189429572412 4.961050895654588 -5.145189433420212 5.183263734473791 -4.922976603402924" fill="#bfe588" transform="matrix(1,0,0,1,0,0)" fill-rule="nonzero"></path></g><g clip-path="url(#a091ec137-922a-4950-8f18-c73241367c7343d7ebf2-ec0f-456a-8570-078f59208dec)"><path d=" M 6.417089281846346 -3.6891510560303686 C 6.560835787093383 -3.5454045555830556 6.616975189242591 -3.335889463348934 6.564360318384546 -3.139528088516262 C 6.5117454475265015 -2.943166713683591 6.358369754384033 -2.789791021018128 6.162008379387727 -2.737176150770776 C 5.965647004391421 -2.6845612805234236 5.756131912331895 -2.740700683324233 5.612385412331641 -2.8844471890183287 C 5.390172582874593 -3.1066600258951063 5.3901725856019125 -3.466938213923606 5.612385419674611 -3.689151048687397 C 5.834598253747311 -3.9113638834511892 6.19487644177581 -3.9113638872989895 6.417089280595013 -3.689151057281702" fill="#bfe588" transform="matrix(1,0,0,1,0,0)" fill-rule="nonzero"></path></g><g clip-path="url(#a091ec137-922a-4950-8f18-c73241367c7343d7ebf2-ec0f-456a-8570-078f59208dec)"><path d=" M 7.6509148279675685 -2.455325509909147 C 7.797585881306825 -2.3121390721243342 7.855933539729888 -2.1011453828409428 7.803668543043472 -1.90294567553914 C 7.751403546357055 -1.7047459682373391 7.596600256446374 -1.5499598978249782 7.398394736366045 -1.4977169493741345 C 7.200189216285716 -1.4454740009232916 6.989202018953357 -1.503845130111503 6.846031897873253 -1.6505321107303006 C 6.628351266922094 -1.8735598923129881 6.6305245616244814 -2.2301809903226752 6.850907243407198 -2.450539157902746 C 7.071289925189916 -2.6708973254828177 7.427911262752333 -2.6730309493227766 7.65091482796757 -2.4553255099091453" fill="#bfe588" transform="matrix(1,0,0,1,0,0)" fill-rule="nonzero"></path></g><g clip-path="url(#a091ec137-922a-4950-8f18-c73241367c7343d7ebf2-ec0f-456a-8570-078f59208dec)"><path d=" M 8.884829905004263 -1.2214104328724522 C 9.03150095834352 -1.0782239950876402 9.089848616766583 -0.8672303058042488 9.037583620080166 -0.669030598502447 C 8.985318623393749 -0.47083089120064514 8.830515333483067 -0.3160448207882851 8.632309813402738 -0.26380187233744046 C 8.43410429332241 -0.21155892388659758 8.223117095990052 -0.269930053074809 8.079946974909946 -0.4166170336936066 C 7.862266343958787 -0.639644815276295 7.864439638661176 -0.9962659132859804 8.084822320443893 -1.2166240808660511 C 8.30520500222661 -1.4369822484461228 8.661826339789027 -1.4391158722860826 8.884829905004263 -1.2214104328724513" fill="#bfe588" transform="matrix(1,0,0,1,0,0)" fill-rule="nonzero"></path></g><g clip-path="url(#a091ec137-922a-4950-8f18-c73241367c7343d7ebf2-ec0f-456a-8570-078f59208dec)"><path d=" M 6.417089281846346 -6.156891679188284 C 6.563760335185604 -6.013705241403472 6.622107993608665 -5.80271155212008 6.569842996922249 -5.604511844818278 C 6.517578000235833 -5.406312137516476 6.3627747103251515 -5.251526067104116 6.164569190244823 -5.199283118653273 C 5.966363670164494 -5.14704017020243 5.755376472832134 -5.20541129939064 5.612206351752031 -5.352098280009438 C 5.394525720800871 -5.575126061592126 5.396699015503259 -5.931747159601813 5.617081697285976 -6.152105327181884 C 5.8374643790686935 -6.372463494761955 6.19408571663111 -6.374597118601915 6.417089281846348 -6.156891679188282" fill="#bfe588" transform="matrix(1,0,0,1,0,0)" fill-rule="nonzero"></path></g><g clip-path="url(#a091ec137-922a-4950-8f18-c73241367c7343d7ebf2-ec0f-456a-8570-078f59208dec)"><path d=" M 7.651004358883041 -4.922976602151591 C 7.797675412222297 -4.779790164366779 7.85602307064536 -4.568796475083387 7.803758073958944 -4.370596767781586 C 7.751493077272528 -4.172397060479783 7.5966897873618455 -4.017610990067423 7.398484267281517 -3.96536804161658 C 7.200278747201188 -3.9131250931657364 6.989291549868828 -3.971496222353947 6.846121428788725 -4.1181832029727445 C 6.628440797837564 -4.341210984555433 6.630614092539953 -4.69783208256512 6.85099677432267 -4.918190250145191 C 7.0713794561053875 -5.138548417725262 7.428000793667804 -5.140682041565221 7.651004358883042 -4.922976602151589" fill="#bfe588" transform="matrix(1,0,0,1,0,0)" fill-rule="nonzero"></path></g><g clip-path="url(#a091ec137-922a-4950-8f18-c73241367c7343d7ebf2-ec0f-456a-8570-078f59208dec)"><path d=" M 8.884829905004263 -3.6891510560303686 C 9.03150095834352 -3.5459646182455566 9.089848616766583 -3.3349709289621643 9.037583620080166 -3.1367712216603634 C 8.985318623393749 -2.9385715143585607 8.830515333483067 -2.7837854439461998 8.632309813402738 -2.731542495495357 C 8.43410429332241 -2.679299547044514 8.223117095990052 -2.7376706762327245 8.079946974909946 -2.884357656851522 C 7.862266343958787 -3.1073854384342106 7.864439638661176 -3.4640065364438968 8.084822320443893 -3.6843647040239684 C 8.30520500222661 -3.904722871604039 8.661826339789027 -3.906856495443998 8.884829905004263 -3.689151056030367" fill="#bfe588" transform="matrix(1,0,0,1,0,0)" fill-rule="nonzero"></path></g><g clip-path="url(#a091ec137-922a-4950-8f18-c73241367c7343d7ebf2-ec0f-456a-8570-078f59208dec)"><path d=" M 10.118655451125484 -2.455325509909147 C 10.26532650446474 -2.3121390721243342 10.323674162887803 -2.1011453828409428 10.271409166201387 -1.90294567553914 C 10.219144169514971 -1.7047459682373391 10.06434087960429 -1.5499598978249782 9.86613535952396 -1.4977169493741345 C 9.667929839443632 -1.4454740009232916 9.456942642111272 -1.503845130111503 9.313772521031169 -1.6505321107303006 C 9.096091890080007 -1.8735598923129881 9.098265184782395 -2.2301809903226752 9.318647866565113 -2.450539157902746 C 9.539030548347831 -2.6708973254828177 9.895651885910247 -2.6730309493227766 10.118655451125484 -2.4553255099091453" fill="#bfe588" transform="matrix(1,0,0,1,0,0)" fill-rule="nonzero"></path></g><g clip-path="url(#a091ec137-922a-4950-8f18-c73241367c7343d7ebf2-ec0f-456a-8570-078f59208dec)"><path d=" M 7.651004358883041 -7.3907172253095075 C 7.797675412222297 -7.2475307875246955 7.85602307064536 -7.036537098241304 7.803758073958944 -6.838337390939502 C 7.751493077272528 -6.6401376836377 7.5966897873618455 -6.485351613225339 7.398484267281517 -6.433108664774496 C 7.200278747201188 -6.380865716323653 6.989291549868828 -6.439236845511863 6.846121428788725 -6.585923826130661 C 6.628440797837564 -6.808951607713349 6.630614092539953 -7.1655727057230365 6.85099677432267 -7.385930873303107 C 7.0713794561053875 -7.606289040883178 7.428000793667804 -7.608422664723138 7.651004358883042 -7.390717225309507" fill="#bfe588" transform="matrix(1,0,0,1,0,0)" fill-rule="nonzero"></path></g><g clip-path="url(#a091ec137-922a-4950-8f18-c73241367c7343d7ebf2-ec0f-456a-8570-078f59208dec)"><path d=" M 8.884829905004263 -6.156891679188284 C 9.03150095834352 -6.013705241403472 9.089848616766583 -5.80271155212008 9.037583620080166 -5.604511844818278 C 8.985318623393749 -5.406312137516476 8.830515333483067 -5.251526067104116 8.632309813402738 -5.199283118653273 C 8.43410429332241 -5.14704017020243 8.223117095990052 -5.20541129939064 8.079946974909946 -5.352098280009438 C 7.862266343958787 -5.575126061592126 7.864439638661176 -5.931747159601813 8.084822320443893 -6.152105327181884 C 8.30520500222661 -6.372463494761955 8.661826339789027 -6.374597118601915 8.884829905004263 -6.156891679188282" fill="#bfe588" transform="matrix(1,0,0,1,0,0)" fill-rule="nonzero"></path></g><g clip-path="url(#a091ec137-922a-4950-8f18-c73241367c7343d7ebf2-ec0f-456a-8570-078f59208dec)"><path d=" M 10.118655451125484 -4.923066133067063 C 10.26532650446474 -4.779879695282251 10.323674162887803 -4.568886005998858 10.271409166201387 -4.370686298697057 C 10.219144169514971 -4.172486591395255 10.06434087960429 -4.017700520982895 9.86613535952396 -3.9654575725320518 C 9.667929839443632 -3.913214624081209 9.456942642111272 -3.9715857532694185 9.313772521031169 -4.118272733888216 C 9.096091890080007 -4.341300515470905 9.098265184782395 -4.697921613480592 9.318647866565113 -4.918279781060662 C 9.539030548347831 -5.138637948640733 9.895651885910247 -5.140771572480693 10.118655451125484 -4.923066133067062" fill="#bfe588" transform="matrix(1,0,0,1,0,0)" fill-rule="nonzero"></path></g><g clip-path="url(#a091ec137-922a-4950-8f18-c73241367c7343d7ebf2-ec0f-456a-8570-078f59208dec)"><path d=" M 11.352570528162179 -3.6891510560303686 C 11.499241581501437 -3.5459646182455566 11.5575892399245 -3.3349709289621643 11.505324243238082 -3.1367712216603634 C 11.453059246551668 -2.9385715143585607 11.298255956640984 -2.7837854439461998 11.100050436560656 -2.731542495495357 C 10.901844916480327 -2.679299547044514 10.690857719147967 -2.7376706762327245 10.547687598067863 -2.884357656851522 C 10.330006967116704 -3.1073854384342106 10.332180261819094 -3.4640065364438968 10.55256294360181 -3.6843647040239684 C 10.772945625384526 -3.904722871604039 11.129566962946944 -3.906856495443998 11.35257052816218 -3.689151056030367" fill="#bfe588" transform="matrix(1,0,0,1,0,0)" fill-rule="nonzero"></path></g><g clip-path="url(#a091ec137-922a-4950-8f18-c73241367c7343d7ebf2-ec0f-456a-8570-078f59208dec)"><path d=" M 8.884829905004263 -8.624632302346201 C 9.03150095834352 -8.481445864561389 9.089848616766583 -8.270452175277997 9.037583620080166 -8.072252467976195 C 8.985318623393749 -7.8740527606743935 8.830515333483067 -7.719266690262033 8.632309813402738 -7.66702374181119 C 8.43410429332241 -7.614780793360347 8.223117095990052 -7.673151922548557 8.079946974909946 -7.819838903167354 C 7.862266343958787 -8.042866684750043 7.864439638661176 -8.39948778275973 8.084822320443893 -8.619845950339801 C 8.30520500222661 -8.840204117919871 8.661826339789027 -8.842337741759831 8.884829905004263 -8.6246323023462" fill="#bfe588" transform="matrix(1,0,0,1,0,0)" fill-rule="nonzero"></path></g><g clip-path="url(#a091ec137-922a-4950-8f18-c73241367c7343d7ebf2-ec0f-456a-8570-078f59208dec)"><path d=" M 10.118744982040957 -7.3907172253095075 C 10.265416035380213 -7.2475307875246955 10.323763693803276 -7.036537098241304 10.27149869711686 -6.838337390939502 C 10.219233700430443 -6.6401376836377 10.064430410519762 -6.485351613225339 9.866224890439433 -6.433108664774496 C 9.668019370359104 -6.380865716323653 9.457032173026743 -6.439236845511863 9.31386205194664 -6.585923826130661 C 9.096181420995482 -6.808951607713349 9.09835471569787 -7.1655727057230365 9.318737397480586 -7.385930873303107 C 9.539120079263302 -7.606289040883178 9.895741416825722 -7.608422664723138 10.118744982040958 -7.390717225309507" fill="#bfe588" transform="matrix(1,0,0,1,0,0)" fill-rule="nonzero"></path></g><g clip-path="url(#a091ec137-922a-4950-8f18-c73241367c7343d7ebf2-ec0f-456a-8570-078f59208dec)"><path d=" M 11.352570528162179 -6.156891679188284 C 11.499241581501437 -6.013705241403472 11.5575892399245 -5.80271155212008 11.505324243238082 -5.604511844818278 C 11.453059246551668 -5.406312137516476 11.298255956640984 -5.251526067104116 11.100050436560656 -5.199283118653273 C 10.901844916480327 -5.14704017020243 10.690857719147967 -5.20541129939064 10.547687598067863 -5.352098280009438 C 10.330006967116704 -5.575126061592126 10.332180261819094 -5.931747159601813 10.55256294360181 -6.152105327181884 C 10.772945625384526 -6.372463494761955 11.129566962946944 -6.374597118601915 11.35257052816218 -6.156891679188282" fill="#bfe588" transform="matrix(1,0,0,1,0,0)" fill-rule="nonzero"></path></g><g clip-path="url(#a091ec137-922a-4950-8f18-c73241367c7343d7ebf2-ec0f-456a-8570-078f59208dec)"><path d=" M 12.586396074283401 -4.923066133067063 C 12.73306712762266 -4.779879695282251 12.79141478604572 -4.568886005998858 12.739149789359304 -4.370686298697057 C 12.686884792672888 -4.172486591395255 12.532081502762205 -4.017700520982895 12.333875982681878 -3.9654575725320518 C 12.13567046260155 -3.913214624081209 11.924683265269188 -3.9715857532694185 11.781513144189086 -4.118272733888216 C 11.563832513237926 -4.341300515470905 11.566005807940314 -4.697921613480592 11.78638848972303 -4.918279781060662 C 12.006771171505747 -5.138637948640733 12.363392509068166 -5.140771572480693 12.586396074283403 -4.923066133067062" fill="#bfe588" transform="matrix(1,0,0,1,0,0)" fill-rule="nonzero"></path></g><g clip-path="url(#SvgjsClipPath1840143d7ebf2-ec0f-456a-8570-078f59208dec)"><path d=" M 7.248637633983314 -4.38660722907622 L 4.780897010825398 -4.38660722907622 L 4.780897010825398 -4.654662789999734 L 7.248637633983314 -4.654662789999734 Z" fill="#bfe588" transform="matrix(1,0,0,1,0,0)" fill-rule="nonzero"></path></g><g clip-path="url(#SvgjsClipPath1840143d7ebf2-ec0f-456a-8570-078f59208dec)"><path d=" M 9.716339660938562 -4.38660722907622 L 7.248599037780645 -4.38660722907622 L 7.248599037780645 -4.654662789999734 L 9.716339660938562 -4.654662789999734 Z" fill="#bfe588" transform="matrix(1,0,0,1,0,0)" fill-rule="nonzero"></path></g><g clip-path="url(#SvgjsClipPath1840143d7ebf2-ec0f-456a-8570-078f59208dec)"><path d=" M 8.577234975625124 -0.9138286323395812 L 8.387698027570655 -0.724291684285113 L 7.153782950533961 -1.9581172304063355 L 7.343409429503902 -2.1476541784608036 Z" fill="#bfe588" transform="matrix(1,0,0,1,0,0)" fill-rule="nonzero"></path></g><g clip-path="url(#SvgjsClipPath1840143d7ebf2-ec0f-456a-8570-078f59208dec)"><path d=" M 12.304505835821912 -4.451472539499044 L 11.070590758785215 -3.2175574624623504 L 10.881053810730748 -3.407183941432291 L 12.114968887767443 -4.641009487553513 Z" fill="#bfe588" transform="matrix(1,0,0,1,0,0)" fill-rule="nonzero"></path></g><g clip-path="url(#SvgjsClipPath1840143d7ebf2-ec0f-456a-8570-078f59208dec)"><path d=" M 11.052793360053943 -5.620458242553845 L 8.482539838680456 -5.620458242553845 L 8.482539838680456 -5.888603334392831 L 11.052793360053943 -5.888513803477359 Z" fill="#bfe588" transform="matrix(1,0,0,1,0,0)" fill-rule="nonzero"></path></g><g clip-path="url(#SvgjsClipPath1840143d7ebf2-ec0f-456a-8570-078f59208dec)"><path d=" M 7.3433839621475006 -6.8936581917538025 L 6.1094688851108065 -5.659743114717108 L 5.919931937056338 -5.849369593687049 L 7.153847014093033 -7.083195139808271 Z" fill="#bfe588" transform="matrix(1,0,0,1,0,0)" fill-rule="nonzero"></path></g><g clip-path="url(#SvgjsClipPath1840143d7ebf2-ec0f-456a-8570-078f59208dec)"><path d=" M 9.811153137457223 -7.083150848082175 L 9.621616189402754 -6.893613900027707 L 8.387701112366061 -8.12743944614893 L 8.577327591336001 -8.316976394203397 Z" fill="#bfe588" transform="matrix(1,0,0,1,0,0)" fill-rule="nonzero"></path></g><g clip-path="url(#SvgjsClipPath1840143d7ebf2-ec0f-456a-8570-078f59208dec)"><path d=" M 8.482488647460938 -3.152823363953072 L 5.975623014241707 -3.152823363953072 L 5.975623014241707 -3.420878924876585 L 8.482488647460938 -3.420878924876585 Z" fill="#bfe588" transform="matrix(1,0,0,1,0,0)" fill-rule="nonzero"></path></g><g clip-path="url(#SvgjsClipPath1840143d7ebf2-ec0f-456a-8570-078f59208dec)"><path d=" M 9.850300628116132 -2.052933317653019 L 9.58224506719262 -2.052933317653019 L 9.58224506719262 -4.520673940810935 L 9.850300628116132 -4.520673940810935 Z" fill="#bfe588" transform="matrix(1,0,0,1,0,0)" fill-rule="nonzero"></path></g></g><g><path d=" M 4.529933715820313 0.6044999999999998 Q 4.5891837158203135 0.6719999999999999 4.5891837158203135 0.7799999999999998 Q 4.5891837158203135 0.9134999999999999 4.491683715820313 0.9854999999999998 Q 4.394183715820313 1.0574999999999999 4.202183715820313 1.0574999999999999 L 3.734183715820313 1.0574999999999999 L 3.734183715820313 0.00749999999999984 L 4.172183715820314 0.00749999999999984 Q 4.343183715820313 0.00749999999999984 4.438433715820313 0.07724999999999982 Q 4.533683715820313 0.1469999999999999 4.533683715820313 0.2759999999999999 Q 4.533683715820313 0.3659999999999999 4.486433715820313 0.4274999999999999 Q 4.439183715820313 0.4889999999999999 4.358183715820314 0.5159999999999999 Q 4.470683715820313 0.5369999999999999 4.529933715820313 0.6044999999999998 M 3.8106837158203133 0.0734999999999999 L 3.8106837158203133 0.4919999999999999 L 4.1691837158203136 0.4919999999999999 Q 4.3071837158203135 0.4919999999999999 4.381433715820314 0.43874999999999986 Q 4.455683715820313 0.38549999999999984 4.455683715820313 0.2819999999999999 Q 4.455683715820313 0.17999999999999983 4.381433715820314 0.12674999999999992 Q 4.3071837158203135 0.0734999999999999 4.1691837158203136 0.0734999999999999 L 3.8106837158203133 0.0734999999999999 M 4.433933715820313 0.9382499999999999 Q 4.512683715820313 0.8849999999999999 4.512683715820313 0.7739999999999998 Q 4.512683715820313 0.6629999999999998 4.433933715820313 0.6104999999999998 Q 4.3551837158203135 0.5579999999999998 4.202183715820313 0.5579999999999998 L 3.8106837158203133 0.5579999999999998 L 3.8106837158203133 0.9914999999999998 L 4.202183715820313 0.9914999999999998 Q 4.3551837158203135 0.9914999999999998 4.433933715820313 0.9382499999999999 M 4.862204956054688 0.00749999999999984 L 4.938704956054688 0.00749999999999984 L 4.938704956054688 1.0574999999999999 L 4.862204956054688 1.0574999999999999 L 4.862204956054688 0.00749999999999984 M 5.505679321289064 0.0764999999999999 L 5.1276793212890635 0.0764999999999999 L 5.1276793212890635 0.00749999999999984 L 5.960179321289063 0.00749999999999984 L 5.960179321289063 0.0764999999999999 L 5.582179321289063 0.0764999999999999 L 5.582179321289063 1.0574999999999999 L 5.505679321289064 1.0574999999999999 L 5.505679321289064 0.0764999999999999 M 6.185911010742188 1.0252499999999998 Q 6.081661010742188 0.9854999999999998 6.0231610107421885 0.9224999999999999 L 6.057661010742188 0.8654999999999999 Q 6.113161010742188 0.9239999999999999 6.206911010742188 0.9607499999999999 Q 6.300661010742188 0.9974999999999998 6.404161010742188 0.9974999999999998 Q 6.554161010742188 0.9974999999999998 6.630661010742188 0.9404999999999999 Q 6.707161010742189 0.8834999999999998 6.707161010742189 0.7919999999999998 Q 6.707161010742189 0.7214999999999998 6.666661010742188 0.6794999999999999 Q 6.626161010742188 0.6375 6.566161010742189 0.6149999999999999 Q 6.506161010742188 0.5924999999999998 6.404161010742188 0.5684999999999999 Q 6.288661010742188 0.5399999999999999 6.218911010742188 0.5129999999999999 Q 6.149161010742188 0.4859999999999999 6.100411010742188 0.42974999999999985 Q 6.051661010742189 0.37349999999999983 6.051661010742189 0.2789999999999999 Q 6.051661010742189 0.2024999999999999 6.092161010742188 0.13874999999999982 Q 6.132661010742188 0.07499999999999984 6.215911010742188 0.03749999999999987 Q 6.299161010742188 -2.220446049250313e-16 6.4236610107421885 -2.220446049250313e-16 Q 6.510661010742188 -2.220446049250313e-16 6.594661010742188 0.025499999999999856 Q 6.678661010742188 0.050999999999999934 6.740161010742188 0.09449999999999992 L 6.711661010742188 0.15599999999999992 Q 6.648661010742188 0.11249999999999982 6.572911010742188 0.08999999999999986 Q 6.497161010742188 0.0674999999999999 6.4236610107421885 0.0674999999999999 Q 6.278161010742188 0.0674999999999999 6.203161010742188 0.1259999999999999 Q 6.128161010742188 0.1844999999999999 6.128161010742188 0.27749999999999986 Q 6.128161010742188 0.34799999999999986 6.168661010742189 0.3899999999999999 Q 6.209161010742188 0.43199999999999983 6.269161010742188 0.4544999999999999 Q 6.3291610107421885 0.47699999999999987 6.432661010742188 0.5024999999999998 Q 6.548161010742188 0.5309999999999999 6.617161010742188 0.5579999999999998 Q 6.686161010742188 0.5849999999999999 6.734911010742188 0.6397499999999998 Q 6.783661010742188 0.6944999999999999 6.783661010742188 0.7874999999999999 Q 6.783661010742188 0.8639999999999999 6.742411010742188 0.9269999999999998 Q 6.701161010742188 0.9899999999999999 6.615661010742189 1.0274999999999999 Q 6.530161010742188 1.065 6.405661010742188 1.065 Q 6.290161010742188 1.065 6.185911010742188 1.0252499999999998 M 8.166702758789063 1.0724999999999998 L 8.015202758789064 0.9134999999999999 Q 7.950702758789063 0.9884999999999999 7.8622027587890635 1.0267499999999998 Q 7.773702758789064 1.065 7.665702758789063 1.065 Q 7.566702758789063 1.065 7.4887027587890636 1.0319999999999998 Q 7.410702758789063 0.9989999999999999 7.367202758789063 0.9389999999999998 Q 7.3237027587890635 0.8789999999999999 7.3237027587890635 0.8024999999999999 Q 7.3237027587890635 0.7109999999999999 7.385202758789063 0.6352499999999999 Q 7.446702758789063 0.5594999999999999 7.595202758789063 0.4724999999999999 L 7.593702758789063 0.4694999999999999 Q 7.515702758789063 0.38849999999999985 7.4872027587890635 0.3337499999999999 Q 7.458702758789063 0.2789999999999999 7.458702758789063 0.21599999999999986 Q 7.458702758789063 0.11849999999999983 7.526202758789063 0.05999999999999983 Q 7.593702758789063 0.0014999999999998348 7.707702758789063 0.0014999999999998348 Q 7.8142027587890635 0.0014999999999998348 7.876452758789063 0.054749999999999854 Q 7.938702758789063 0.10799999999999987 7.938702758789063 0.20099999999999985 Q 7.938702758789063 0.2789999999999999 7.8854527587890635 0.34124999999999983 Q 7.832202758789063 0.40349999999999986 7.6987027587890635 0.4814999999999998 L 8.009202758789064 0.8099999999999998 Q 8.060202758789064 0.7199999999999999 8.084202758789063 0.5969999999999999 L 8.145702758789064 0.6164999999999998 Q 8.115702758789062 0.7619999999999999 8.055702758789064 0.8579999999999999 L 8.211702758789063 1.023 L 8.166702758789063 1.0724999999999998 M 7.554702758789063 0.3112499999999999 Q 7.5802027587890635 0.3569999999999999 7.655202758789064 0.4364999999999999 Q 7.779702758789063 0.3644999999999998 7.826202758789063 0.3142499999999999 Q 7.872702758789063 0.2639999999999999 7.872702758789063 0.2024999999999999 Q 7.872702758789063 0.13649999999999984 7.829202758789063 0.09824999999999984 Q 7.785702758789063 0.05999999999999983 7.707702758789063 0.05999999999999983 Q 7.623702758789063 0.05999999999999983 7.576452758789063 0.1027499999999999 Q 7.529202758789063 0.14549999999999985 7.529202758789063 0.21599999999999986 Q 7.529202758789063 0.26549999999999985 7.554702758789063 0.3112499999999999 M 7.970202758789063 0.8654999999999999 L 7.638702758789063 0.5159999999999999 Q 7.500702758789063 0.5969999999999999 7.448952758789063 0.6584999999999999 Q 7.397202758789064 0.7199999999999999 7.397202758789064 0.7964999999999999 Q 7.397202758789064 0.8879999999999999 7.472952758789063 0.9449999999999998 Q 7.548702758789063 1.0019999999999998 7.668702758789063 1.0019999999999998 Q 7.860702758789063 1.0019999999999998 7.970202758789063 0.8654999999999999 M 9.592525268554688 0.6044999999999998 Q 9.651775268554688 0.6719999999999999 9.651775268554688 0.7799999999999998 Q 9.651775268554688 0.9134999999999999 9.554275268554688 0.9854999999999998 Q 9.456775268554688 1.0574999999999999 9.264775268554688 1.0574999999999999 L 8.796775268554688 1.0574999999999999 L 8.796775268554688 0.00749999999999984 L 9.234775268554689 0.00749999999999984 Q 9.405775268554688 0.00749999999999984 9.501025268554688 0.07724999999999982 Q 9.596275268554688 0.1469999999999999 9.596275268554688 0.2759999999999999 Q 9.596275268554688 0.3659999999999999 9.549025268554688 0.4274999999999999 Q 9.501775268554688 0.4889999999999999 9.420775268554689 0.5159999999999999 Q 9.533275268554688 0.5369999999999999 9.592525268554688 0.6044999999999998 M 8.873275268554687 0.0734999999999999 L 8.873275268554687 0.4919999999999999 L 9.231775268554689 0.4919999999999999 Q 9.369775268554688 0.4919999999999999 9.444025268554688 0.43874999999999986 Q 9.518275268554689 0.38549999999999984 9.518275268554689 0.2819999999999999 Q 9.518275268554689 0.17999999999999983 9.444025268554688 0.12674999999999992 Q 9.369775268554688 0.0734999999999999 9.231775268554689 0.0734999999999999 L 8.873275268554687 0.0734999999999999 M 9.496525268554688 0.9382499999999999 Q 9.575275268554687 0.8849999999999999 9.575275268554687 0.7739999999999998 Q 9.575275268554687 0.6629999999999998 9.496525268554688 0.6104999999999998 Q 9.417775268554688 0.5579999999999998 9.264775268554688 0.5579999999999998 L 8.873275268554687 0.5579999999999998 L 8.873275268554687 0.9914999999999998 L 9.264775268554688 0.9914999999999998 Q 9.417775268554688 0.9914999999999998 9.496525268554688 0.9382499999999999 M 10.226274536132813 0.696 L 10.226274536132813 1.0574999999999999 L 10.149774536132814 1.0574999999999999 L 10.149774536132814 0.696 L 9.726774536132814 0.00749999999999984 L 9.810774536132813 0.00749999999999984 L 10.190274536132813 0.6255 L 10.569774536132813 0.00749999999999984 L 10.649274536132813 0.00749999999999984 L 10.226274536132813 0.696 M 11.036288452148439 0.0764999999999999 L 10.658288452148438 0.0764999999999999 L 10.658288452148438 0.00749999999999984 L 11.490788452148438 0.00749999999999984 L 11.490788452148438 0.0764999999999999 L 11.112788452148438 0.0764999999999999 L 11.112788452148438 1.0574999999999999 L 11.036288452148439 1.0574999999999999 L 11.036288452148439 0.0764999999999999 M 12.404270874023439 0.9884999999999999 L 12.404270874023439 1.0574999999999999 L 11.679770874023438 1.0574999999999999 L 11.679770874023438 0.00749999999999984 L 12.381770874023438 0.00749999999999984 L 12.381770874023438 0.0764999999999999 L 11.756270874023437 0.0764999999999999 L 11.756270874023437 0.4904999999999998 L 12.315770874023439 0.4904999999999998 L 12.315770874023439 0.5579999999999998 L 11.756270874023437 0.5579999999999998 L 11.756270874023437 0.9884999999999999 L 12.404270874023439 0.9884999999999999 M 12.739530395507813 1.0252499999999998 Q 12.635280395507813 0.9854999999999998 12.576780395507813 0.9224999999999999 L 12.611280395507814 0.8654999999999999 Q 12.666780395507812 0.9239999999999999 12.760530395507812 0.9607499999999999 Q 12.854280395507812 0.9974999999999998 12.957780395507813 0.9974999999999998 Q 13.107780395507813 0.9974999999999998 13.184280395507812 0.9404999999999999 Q 13.260780395507814 0.8834999999999998 13.260780395507814 0.7919999999999998 Q 13.260780395507814 0.7214999999999998 13.220280395507814 0.6794999999999999 Q 13.179780395507812 0.6375 13.119780395507814 0.6149999999999999 Q 13.059780395507813 0.5924999999999998 12.957780395507813 0.5684999999999999 Q 12.842280395507814 0.5399999999999999 12.772530395507813 0.5129999999999999 Q 12.702780395507814 0.4859999999999999 12.654030395507814 0.42974999999999985 Q 12.605280395507814 0.37349999999999983 12.605280395507814 0.2789999999999999 Q 12.605280395507814 0.2024999999999999 12.645780395507813 0.13874999999999982 Q 12.686280395507813 0.07499999999999984 12.769530395507813 0.03749999999999987 Q 12.852780395507812 -2.220446049250313e-16 12.977280395507814 -2.220446049250313e-16 Q 13.064280395507813 -2.220446049250313e-16 13.148280395507813 0.025499999999999856 Q 13.232280395507813 0.050999999999999934 13.293780395507813 0.09449999999999992 L 13.265280395507814 0.15599999999999992 Q 13.202280395507813 0.11249999999999982 13.126530395507814 0.08999999999999986 Q 13.050780395507813 0.0674999999999999 12.977280395507814 0.0674999999999999 Q 12.831780395507813 0.0674999999999999 12.756780395507814 0.1259999999999999 Q 12.681780395507813 0.1844999999999999 12.681780395507813 0.27749999999999986 Q 12.681780395507813 0.34799999999999986 12.722280395507813 0.3899999999999999 Q 12.762780395507813 0.43199999999999983 12.822780395507813 0.4544999999999999 Q 12.882780395507814 0.47699999999999987 12.986280395507814 0.5024999999999998 Q 13.101780395507813 0.5309999999999999 13.170780395507814 0.5579999999999998 Q 13.239780395507813 0.5849999999999999 13.288530395507813 0.6397499999999998 Q 13.337280395507813 0.6944999999999999 13.337280395507813 0.7874999999999999 Q 13.337280395507813 0.8639999999999999 13.296030395507813 0.9269999999999998 Q 13.254780395507813 0.9899999999999999 13.169280395507814 1.0274999999999999 Q 13.083780395507814 1.065 12.959280395507813 1.065 Q 12.843780395507814 1.065 12.739530395507813 1.0252499999999998" fill="#173054" fill-rule="nonzero"></path></g><g><path d=" M 0.11812500000000001 1.929975 Q 0.0645 1.9112250000000002 0.035250000000000004 1.8804750000000001 L 0.057 1.837725 Q 0.0855 1.866225 0.13275 1.88385 Q 0.18 1.901475 0.23025 1.901475 Q 0.30075 1.901475 0.336 1.8756000000000002 Q 0.37125 1.849725 0.37125 1.808475 Q 0.37125 1.7769750000000002 0.352125 1.7582250000000001 Q 0.333 1.739475 0.30525 1.7293500000000002 Q 0.2775 1.719225 0.228 1.707225 Q 0.16875 1.692225 0.1335 1.67835 Q 0.09825 1.6644750000000001 0.073125 1.6359750000000002 Q 0.048 1.607475 0.048 1.5587250000000001 Q 0.048 1.5189750000000002 0.069 1.48635 Q 0.09 1.4537250000000002 0.1335 1.434225 Q 0.177 1.4147250000000002 0.2415 1.4147250000000002 Q 0.28650000000000003 1.4147250000000002 0.329625 1.4271 Q 0.37275 1.439475 0.40425 1.4612250000000002 L 0.3855 1.5054750000000001 Q 0.3525 1.4837250000000002 0.315 1.4728500000000002 Q 0.2775 1.461975 0.2415 1.461975 Q 0.17250000000000001 1.461975 0.137625 1.4886000000000001 Q 0.10275000000000001 1.515225 0.10275000000000001 1.557225 Q 0.10275000000000001 1.5887250000000002 0.121875 1.60785 Q 0.14100000000000001 1.626975 0.169875 1.6371000000000002 Q 0.19875 1.6472250000000002 0.2475 1.6592250000000002 Q 0.30525 1.673475 0.340875 1.6873500000000001 Q 0.3765 1.701225 0.40125 1.7293500000000002 Q 0.426 1.7574750000000001 0.426 1.8054750000000002 Q 0.426 1.8452250000000001 0.404625 1.87785 Q 0.38325000000000004 1.9104750000000001 0.339 1.9296 Q 0.29475 1.948725 0.23025 1.948725 Q 0.17175 1.948725 0.11812500000000001 1.929975 M 1.09311767578125 1.419225 L 1.09311767578125 1.944225 L 1.03986767578125 1.944225 L 1.03986767578125 1.5242250000000002 L 0.8336176757812499 1.877475 L 0.80736767578125 1.877475 L 0.60111767578125 1.526475 L 0.60111767578125 1.944225 L 0.54786767578125 1.944225 L 0.54786767578125 1.419225 L 0.5936176757812499 1.419225 L 0.8216176757812499 1.808475 L 1.04736767578125 1.419225 L 1.09311767578125 1.419225 M 1.594505493164062 1.803975 L 1.302005493164062 1.803975 L 1.2390054931640622 1.944225 L 1.1812554931640622 1.944225 L 1.4212554931640622 1.419225 L 1.4760054931640623 1.419225 L 1.716005493164062 1.944225 L 1.657505493164062 1.944225 L 1.594505493164062 1.803975 M 1.5742554931640622 1.7589750000000002 L 1.448255493164062 1.4769750000000001 L 1.3222554931640622 1.7589750000000002 L 1.5742554931640622 1.7589750000000002 M 1.8041154785156246 1.419225 L 1.8596154785156247 1.419225 L 1.8596154785156247 1.896225 L 2.1536154785156247 1.896225 L 2.1536154785156247 1.944225 L 1.8041154785156246 1.944225 L 1.8041154785156246 1.419225 M 2.246982421875 1.419225 L 2.3024824218749997 1.419225 L 2.3024824218749997 1.896225 L 2.596482421875 1.896225 L 2.596482421875 1.944225 L 2.246982421875 1.944225 L 2.246982421875 1.419225 M 2.939992309570312 1.890225 Q 2.8829923095703123 1.831725 2.8829923095703123 1.719975 L 2.8829923095703123 1.419225 L 2.938492309570312 1.419225 L 2.938492309570312 1.7177250000000002 Q 2.938492309570312 1.809225 2.9797423095703124 1.854225 Q 3.020992309570312 1.8992250000000002 3.0989923095703125 1.8992250000000002 Q 3.1777423095703123 1.8992250000000002 3.218992309570312 1.854225 Q 3.2602423095703124 1.809225 3.2602423095703124 1.7177250000000002 L 3.2602423095703124 1.419225 L 3.314242309570312 1.419225 L 3.314242309570312 1.719975 Q 3.314242309570312 1.831725 3.2576173095703123 1.890225 Q 3.2009923095703123 1.948725 3.0989923095703125 1.948725 Q 2.996992309570312 1.948725 2.939992309570312 1.890225 M 3.9213614501953122 1.419225 L 3.9213614501953122 1.944225 L 3.8756114501953123 1.944225 L 3.5381114501953124 1.5182250000000002 L 3.5381114501953124 1.944225 L 3.4826114501953125 1.944225 L 3.4826114501953125 1.419225 L 3.5283614501953124 1.419225 L 3.8666114501953124 1.8452250000000001 L 3.8666114501953124 1.419225 L 3.9213614501953122 1.419225 M 4.093477661132812 1.419225 L 4.148977661132812 1.419225 L 4.148977661132812 1.944225 L 4.093477661132812 1.944225 L 4.093477661132812 1.419225 M 4.423104125976562 1.467225 L 4.238604125976562 1.467225 L 4.238604125976562 1.419225 L 4.663104125976562 1.419225 L 4.663104125976562 1.467225 L 4.478604125976562 1.467225 L 4.478604125976562 1.944225 L 4.423104125976562 1.944225 L 4.423104125976562 1.467225 M 4.777095336914062 1.929975 Q 4.723470336914062 1.9112250000000002 4.6942203369140625 1.8804750000000001 L 4.715970336914062 1.837725 Q 4.744470336914062 1.866225 4.791720336914062 1.88385 Q 4.838970336914062 1.901475 4.889220336914062 1.901475 Q 4.959720336914062 1.901475 4.994970336914062 1.8756000000000002 Q 5.030220336914062 1.849725 5.030220336914062 1.808475 Q 5.030220336914062 1.7769750000000002 5.011095336914062 1.7582250000000001 Q 4.991970336914062 1.739475 4.964220336914062 1.7293500000000002 Q 4.936470336914062 1.719225 4.886970336914062 1.707225 Q 4.827720336914062 1.692225 4.792470336914062 1.67835 Q 4.757220336914062 1.6644750000000001 4.732095336914062 1.6359750000000002 Q 4.706970336914062 1.607475 4.706970336914062 1.5587250000000001 Q 4.706970336914062 1.5189750000000002 4.727970336914062 1.48635 Q 4.748970336914062 1.4537250000000002 4.792470336914062 1.434225 Q 4.835970336914062 1.4147250000000002 4.900470336914062 1.4147250000000002 Q 4.945470336914062 1.4147250000000002 4.988595336914062 1.4271 Q 5.031720336914062 1.439475 5.063220336914062 1.4612250000000002 L 5.044470336914062 1.5054750000000001 Q 5.011470336914062 1.4837250000000002 4.973970336914062 1.4728500000000002 Q 4.936470336914062 1.461975 4.900470336914062 1.461975 Q 4.831470336914062 1.461975 4.796595336914062 1.4886000000000001 Q 4.761720336914062 1.515225 4.761720336914062 1.557225 Q 4.761720336914062 1.5887250000000002 4.780845336914062 1.60785 Q 4.799970336914062 1.626975 4.828845336914062 1.6371000000000002 Q 4.8577203369140625 1.6472250000000002 4.906470336914062 1.6592250000000002 Q 4.964220336914062 1.673475 4.999845336914062 1.6873500000000001 Q 5.035470336914062 1.701225 5.060220336914062 1.7293500000000002 Q 5.084970336914062 1.7574750000000001 5.084970336914062 1.8054750000000002 Q 5.084970336914062 1.8452250000000001 5.063595336914062 1.87785 Q 5.042220336914062 1.9104750000000001 4.9979703369140625 1.9296 Q 4.953720336914062 1.948725 4.889220336914062 1.948725 Q 4.830720336914062 1.948725 4.777095336914062 1.929975 M 5.49260595703125 1.91385 Q 5.429230957031249 1.878975 5.39360595703125 1.818225 Q 5.357980957031249 1.7574750000000001 5.357980957031249 1.6817250000000001 Q 5.357980957031249 1.6059750000000002 5.39360595703125 1.545225 Q 5.429230957031249 1.4844750000000002 5.49260595703125 1.4496 Q 5.55598095703125 1.4147250000000002 5.63398095703125 1.4147250000000002 Q 5.711980957031249 1.4147250000000002 5.77460595703125 1.4492250000000002 Q 5.83723095703125 1.4837250000000002 5.873230957031249 1.54485 Q 5.90923095703125 1.6059750000000002 5.90923095703125 1.6817250000000001 Q 5.90923095703125 1.7574750000000001 5.873230957031249 1.8186 Q 5.83723095703125 1.879725 5.77460595703125 1.914225 Q 5.711980957031249 1.948725 5.63398095703125 1.948725 Q 5.55598095703125 1.948725 5.49260595703125 1.91385 M 5.74648095703125 1.8711000000000002 Q 5.79673095703125 1.842975 5.825230957031249 1.7931000000000001 Q 5.8537309570312495 1.743225 5.8537309570312495 1.6817250000000001 Q 5.8537309570312495 1.620225 5.825230957031249 1.5703500000000001 Q 5.79673095703125 1.520475 5.74648095703125 1.49235 Q 5.69623095703125 1.464225 5.63398095703125 1.464225 Q 5.571730957031249 1.464225 5.521105957031249 1.49235 Q 5.47048095703125 1.520475 5.44160595703125 1.5703500000000001 Q 5.41273095703125 1.620225 5.41273095703125 1.6817250000000001 Q 5.41273095703125 1.743225 5.44160595703125 1.7931000000000001 Q 5.47048095703125 1.842975 5.521105957031249 1.8711000000000002 Q 5.571730957031249 1.8992250000000002 5.63398095703125 1.8992250000000002 Q 5.69623095703125 1.8992250000000002 5.74648095703125 1.8711000000000002 M 6.090347900390625 1.467225 L 6.090347900390625 1.673475 L 6.361847900390624 1.673475 L 6.361847900390624 1.721475 L 6.090347900390625 1.721475 L 6.090347900390625 1.944225 L 6.034847900390624 1.944225 L 6.034847900390624 1.419225 L 6.394847900390625 1.419225 L 6.394847900390625 1.467225 L 6.090347900390625 1.467225 M 6.796487548828125 1.91385 Q 6.7331125488281245 1.878975 6.697487548828125 1.818225 Q 6.6618625488281245 1.7574750000000001 6.6618625488281245 1.6817250000000001 Q 6.6618625488281245 1.6059750000000002 6.697487548828125 1.545225 Q 6.7331125488281245 1.4844750000000002 6.796487548828125 1.4496 Q 6.859862548828125 1.4147250000000002 6.937862548828125 1.4147250000000002 Q 7.0158625488281245 1.4147250000000002 7.078487548828125 1.4492250000000002 Q 7.141112548828125 1.4837250000000002 7.177112548828124 1.54485 Q 7.213112548828125 1.6059750000000002 7.213112548828125 1.6817250000000001 Q 7.213112548828125 1.7574750000000001 7.177112548828124 1.8186 Q 7.141112548828125 1.879725 7.078487548828125 1.914225 Q 7.0158625488281245 1.948725 6.937862548828125 1.948725 Q 6.859862548828125 1.948725 6.796487548828125 1.91385 M 7.050362548828125 1.8711000000000002 Q 7.100612548828125 1.842975 7.129112548828124 1.7931000000000001 Q 7.157612548828125 1.743225 7.157612548828125 1.6817250000000001 Q 7.157612548828125 1.620225 7.129112548828124 1.5703500000000001 Q 7.100612548828125 1.520475 7.050362548828125 1.49235 Q 7.000112548828125 1.464225 6.937862548828125 1.464225 Q 6.875612548828125 1.464225 6.824987548828124 1.49235 Q 6.774362548828125 1.520475 6.745487548828125 1.5703500000000001 Q 6.716612548828125 1.620225 6.716612548828125 1.6817250000000001 Q 6.716612548828125 1.743225 6.745487548828125 1.7931000000000001 Q 6.774362548828125 1.842975 6.824987548828124 1.8711000000000002 Q 6.875612548828125 1.8992250000000002 6.937862548828125 1.8992250000000002 Q 7.000112548828125 1.8992250000000002 7.050362548828125 1.8711000000000002 M 7.6972294921875 1.944225 L 7.5772294921875 1.7754750000000001 Q 7.5569794921875 1.777725 7.5352294921875 1.777725 L 7.3942294921875 1.777725 L 7.3942294921875 1.944225 L 7.3387294921874995 1.944225 L 7.3387294921874995 1.419225 L 7.5352294921875 1.419225 Q 7.6357294921875 1.419225 7.6927294921875 1.467225 Q 7.7497294921875 1.515225 7.7497294921875 1.5992250000000001 Q 7.7497294921875 1.660725 7.7186044921875 1.7031 Q 7.687479492187499 1.745475 7.6297294921875 1.7642250000000002 L 7.7579794921875 1.944225 L 7.6972294921875 1.944225 M 7.6529794921875 1.695975 Q 7.6942294921875 1.661475 7.6942294921875 1.5992250000000001 Q 7.6942294921875 1.5354750000000001 7.6529794921875 1.50135 Q 7.6117294921875 1.467225 7.5337294921875 1.467225 L 7.3942294921875 1.467225 L 7.3942294921875 1.7304750000000002 L 7.5337294921875 1.7304750000000002 Q 7.6117294921875 1.7304750000000002 7.6529794921875 1.695975 M 8.251871337890625 1.6817250000000001 L 8.305121337890625 1.6817250000000001 L 8.305121337890625 1.8819750000000002 Q 8.268371337890624 1.914225 8.218121337890626 1.931475 Q 8.167871337890626 1.948725 8.112371337890625 1.948725 Q 8.033621337890624 1.948725 7.970621337890625 1.914225 Q 7.907621337890625 1.879725 7.871621337890625 1.8186 Q 7.8356213378906245 1.7574750000000001 7.8356213378906245 1.6817250000000001 Q 7.8356213378906245 1.6059750000000002 7.871621337890625 1.54485 Q 7.907621337890625 1.4837250000000002 7.970621337890625 1.4492250000000002 Q 8.033621337890624 1.4147250000000002 8.113121337890625 1.4147250000000002 Q 8.173121337890624 1.4147250000000002 8.223371337890624 1.43385 Q 8.273621337890624 1.4529750000000001 8.308121337890626 1.490475 L 8.273621337890624 1.525725 Q 8.211371337890625 1.464225 8.115371337890625 1.464225 Q 8.051621337890625 1.464225 8.000246337890625 1.49235 Q 7.948871337890624 1.520475 7.919621337890625 1.5703500000000001 Q 7.890371337890625 1.620225 7.890371337890625 1.6817250000000001 Q 7.890371337890625 1.743225 7.919621337890625 1.7927250000000001 Q 7.948871337890624 1.842225 7.9998713378906245 1.8707250000000002 Q 8.050871337890625 1.8992250000000002 8.114621337890625 1.8992250000000002 Q 8.195621337890625 1.8992250000000002 8.251871337890625 1.8587250000000002 L 8.251871337890625 1.6817250000000001 M 8.792254028320313 1.803975 L 8.499754028320313 1.803975 L 8.436754028320314 1.944225 L 8.379004028320313 1.944225 L 8.619004028320314 1.419225 L 8.673754028320314 1.419225 L 8.913754028320314 1.944225 L 8.855254028320314 1.944225 L 8.792254028320313 1.803975 M 8.772004028320314 1.7589750000000002 L 8.646004028320313 1.4769750000000001 L 8.520004028320313 1.7589750000000002 L 8.772004028320314 1.7589750000000002 M 9.440614013671876 1.419225 L 9.440614013671876 1.944225 L 9.394864013671876 1.944225 L 9.057364013671876 1.5182250000000002 L 9.057364013671876 1.944225 L 9.001864013671875 1.944225 L 9.001864013671875 1.419225 L 9.047614013671875 1.419225 L 9.385864013671876 1.8452250000000001 L 9.385864013671876 1.419225 L 9.440614013671876 1.419225 M 9.612730224609376 1.419225 L 9.668230224609376 1.419225 L 9.668230224609376 1.944225 L 9.612730224609376 1.944225 L 9.612730224609376 1.419225 M 10.219106689453126 1.896225 L 10.219106689453126 1.944225 L 9.788606689453125 1.944225 L 9.788606689453125 1.9059750000000002 L 10.136606689453126 1.467225 L 9.793856689453126 1.467225 L 9.793856689453126 1.419225 L 10.210106689453125 1.419225 L 10.210106689453125 1.457475 L 9.862856689453126 1.896225 L 10.219106689453126 1.896225 M 10.700982421875 1.896225 L 10.700982421875 1.944225 L 10.329732421875 1.944225 L 10.329732421875 1.419225 L 10.689732421875 1.419225 L 10.689732421875 1.467225 L 10.385232421875001 1.467225 L 10.385232421875001 1.653975 L 10.656732421875 1.653975 L 10.656732421875 1.701225 L 10.385232421875001 1.701225 L 10.385232421875001 1.896225 L 10.700982421875 1.896225 M 10.832612182617188 1.419225 L 11.04636218261719 1.419225 Q 11.129612182617189 1.419225 11.19336218261719 1.4526000000000001 Q 11.257112182617188 1.485975 11.292362182617188 1.5456 Q 11.32761218261719 1.6052250000000001 11.32761218261719 1.6817250000000001 Q 11.32761218261719 1.7582250000000001 11.292362182617188 1.81785 Q 11.257112182617188 1.877475 11.19336218261719 1.9108500000000002 Q 11.129612182617189 1.944225 11.04636218261719 1.944225 L 10.832612182617188 1.944225 L 10.832612182617188 1.419225 M 11.043362182617189 1.896225 Q 11.112362182617188 1.896225 11.164112182617188 1.8688500000000001 Q 11.215862182617188 1.841475 11.244362182617188 1.7931000000000001 Q 11.272862182617189 1.744725 11.272862182617189 1.6817250000000001 Q 11.272862182617189 1.618725 11.244362182617188 1.5703500000000001 Q 11.215862182617188 1.521975 11.164112182617188 1.4946000000000002 Q 11.112362182617188 1.467225 11.043362182617189 1.467225 L 10.888112182617188 1.467225 L 10.888112182617188 1.896225 L 11.043362182617189 1.896225 M 11.813621704101564 1.697475 L 11.706371704101564 1.806225 L 11.706371704101564 1.944225 L 11.650871704101563 1.944225 L 11.650871704101563 1.419225 L 11.706371704101564 1.419225 L 11.706371704101564 1.736475 L 12.014621704101563 1.419225 L 12.078371704101563 1.419225 L 11.851121704101564 1.656975 L 12.094121704101564 1.944225 L 12.028121704101563 1.944225 L 11.813621704101564 1.697475 M 12.623995605468751 1.419225 L 12.623995605468751 1.944225 L 12.578245605468751 1.944225 L 12.240745605468751 1.5182250000000002 L 12.240745605468751 1.944225 L 12.18524560546875 1.944225 L 12.18524560546875 1.419225 L 12.23099560546875 1.419225 L 12.569245605468751 1.8452250000000001 L 12.569245605468751 1.419225 L 12.623995605468751 1.419225 M 12.88423681640625 1.91385 Q 12.820861816406252 1.878975 12.78523681640625 1.818225 Q 12.74961181640625 1.7574750000000001 12.74961181640625 1.6817250000000001 Q 12.74961181640625 1.6059750000000002 12.78523681640625 1.545225 Q 12.820861816406252 1.4844750000000002 12.88423681640625 1.4496 Q 12.947611816406251 1.4147250000000002 13.02561181640625 1.4147250000000002 Q 13.103611816406252 1.4147250000000002 13.16623681640625 1.4492250000000002 Q 13.228861816406251 1.4837250000000002 13.26486181640625 1.54485 Q 13.30086181640625 1.6059750000000002 13.30086181640625 1.6817250000000001 Q 13.30086181640625 1.7574750000000001 13.26486181640625 1.8186 Q 13.228861816406251 1.879725 13.16623681640625 1.914225 Q 13.103611816406252 1.948725 13.02561181640625 1.948725 Q 12.947611816406251 1.948725 12.88423681640625 1.91385 M 13.138111816406251 1.8711000000000002 Q 13.188361816406251 1.842975 13.21686181640625 1.7931000000000001 Q 13.245361816406252 1.743225 13.245361816406252 1.6817250000000001 Q 13.245361816406252 1.620225 13.21686181640625 1.5703500000000001 Q 13.188361816406251 1.520475 13.138111816406251 1.49235 Q 13.087861816406251 1.464225 13.02561181640625 1.464225 Q 12.963361816406252 1.464225 12.912736816406252 1.49235 Q 12.862111816406252 1.520475 12.83323681640625 1.5703500000000001 Q 12.804361816406251 1.620225 12.804361816406251 1.6817250000000001 Q 12.804361816406251 1.743225 12.83323681640625 1.7931000000000001 Q 12.862111816406252 1.842975 12.912736816406252 1.8711000000000002 Q 12.963361816406252 1.8992250000000002 13.02561181640625 1.8992250000000002 Q 13.087861816406251 1.8992250000000002 13.138111816406251 1.8711000000000002 M 14.131481689453127 1.419225 L 13.954481689453127 1.944225 L 13.895981689453127 1.944225 L 13.742231689453126 1.496475 L 13.587731689453125 1.944225 L 13.529981689453127 1.944225 L 13.352981689453125 1.419225 L 13.409981689453126 1.419225 L 13.561481689453126 1.8707250000000002 L 13.718231689453127 1.419225 L 13.769981689453127 1.419225 L 13.924481689453126 1.872975 L 14.078231689453126 1.419225 L 14.131481689453127 1.419225 M 14.233862915039063 1.419225 L 14.289362915039064 1.419225 L 14.289362915039064 1.896225 L 14.583362915039064 1.896225 L 14.583362915039064 1.944225 L 14.233862915039063 1.944225 L 14.233862915039063 1.419225 M 15.047979858398438 1.896225 L 15.047979858398438 1.944225 L 14.676729858398438 1.944225 L 14.676729858398438 1.419225 L 15.036729858398438 1.419225 L 15.036729858398438 1.467225 L 14.732229858398439 1.467225 L 14.732229858398439 1.653975 L 15.003729858398438 1.653975 L 15.003729858398438 1.701225 L 14.732229858398439 1.701225 L 14.732229858398439 1.896225 L 15.047979858398438 1.896225 M 15.179609619140626 1.419225 L 15.393359619140627 1.419225 Q 15.476609619140627 1.419225 15.540359619140627 1.4526000000000001 Q 15.604109619140626 1.485975 15.639359619140626 1.5456 Q 15.674609619140627 1.6052250000000001 15.674609619140627 1.6817250000000001 Q 15.674609619140627 1.7582250000000001 15.639359619140626 1.81785 Q 15.604109619140626 1.877475 15.540359619140627 1.9108500000000002 Q 15.476609619140627 1.944225 15.393359619140627 1.944225 L 15.179609619140626 1.944225 L 15.179609619140626 1.419225 M 15.390359619140627 1.896225 Q 15.459359619140626 1.896225 15.511109619140626 1.8688500000000001 Q 15.562859619140626 1.841475 15.591359619140626 1.7931000000000001 Q 15.619859619140627 1.744725 15.619859619140627 1.6817250000000001 Q 15.619859619140627 1.618725 15.591359619140626 1.5703500000000001 Q 15.562859619140626 1.521975 15.511109619140626 1.4946000000000002 Q 15.459359619140626 1.467225 15.390359619140627 1.467225 L 15.235109619140626 1.467225 L 15.235109619140626 1.896225 L 15.390359619140627 1.896225 M 16.169976196289063 1.6817250000000001 L 16.223226196289065 1.6817250000000001 L 16.223226196289065 1.8819750000000002 Q 16.186476196289064 1.914225 16.136226196289066 1.931475 Q 16.085976196289064 1.948725 16.030476196289065 1.948725 Q 15.951726196289064 1.948725 15.888726196289063 1.914225 Q 15.825726196289065 1.879725 15.789726196289063 1.8186 Q 15.753726196289064 1.7574750000000001 15.753726196289064 1.6817250000000001 Q 15.753726196289064 1.6059750000000002 15.789726196289063 1.54485 Q 15.825726196289065 1.4837250000000002 15.888726196289063 1.4492250000000002 Q 15.951726196289064 1.4147250000000002 16.031226196289065 1.4147250000000002 Q 16.091226196289064 1.4147250000000002 16.141476196289062 1.43385 Q 16.191726196289064 1.4529750000000001 16.226226196289065 1.490475 L 16.191726196289064 1.525725 Q 16.129476196289065 1.464225 16.033476196289065 1.464225 Q 15.969726196289065 1.464225 15.918351196289064 1.49235 Q 15.866976196289064 1.520475 15.837726196289063 1.5703500000000001 Q 15.808476196289064 1.620225 15.808476196289064 1.6817250000000001 Q 15.808476196289064 1.743225 15.837726196289063 1.7927250000000001 Q 15.866976196289064 1.842225 15.917976196289064 1.8707250000000002 Q 15.968976196289065 1.8992250000000002 16.032726196289065 1.8992250000000002 Q 16.113726196289065 1.8992250000000002 16.169976196289063 1.8587250000000002 L 16.169976196289063 1.6817250000000001 M 16.752358886718753 1.896225 L 16.752358886718753 1.944225 L 16.381108886718753 1.944225 L 16.381108886718753 1.419225 L 16.741108886718752 1.419225 L 16.741108886718752 1.467225 L 16.43660888671875 1.467225 L 16.43660888671875 1.653975 L 16.708108886718755 1.653975 L 16.708108886718755 1.701225 L 16.43660888671875 1.701225 L 16.43660888671875 1.896225 L 16.752358886718753 1.896225 M 16.85737097167969 1.935975 Q 16.84574597167969 1.923975 16.84574597167969 1.906725 Q 16.84574597167969 1.889475 16.85737097167969 1.87785 Q 16.868995971679688 1.866225 16.88549597167969 1.866225 Q 16.90199597167969 1.866225 16.91399597167969 1.87785 Q 16.92599597167969 1.889475 16.92599597167969 1.906725 Q 16.92599597167969 1.923975 16.91399597167969 1.935975 Q 16.90199597167969 1.947975 16.88549597167969 1.947975 Q 16.868995971679688 1.947975 16.85737097167969 1.935975" fill="#225777" fill-rule="nonzero"></path></g></g><defs><clipPath id="SvgjsClipPath18403"><path d=" M 4.211853302852672 -8.791270689216532 h 8.541270689216532 v 8.541270689216532 h -8.541270689216532 Z"></path></clipPath><clipPath id="a091ec137-922a-4950-8f18-c73241367c7343d7ebf2-ec0f-456a-8570-078f59208dec"><path d=" M 4.211853302852672 -0.25 L 12.75310263889248 -0.25 L 12.75310263889248 -8.791249336039808 L 4.211853302852672 -8.791249336039808 Z"></path></clipPath><clipPath id="SvgjsClipPath1840143d7ebf2-ec0f-456a-8570-078f59208dec"><path d=" M 4.211853302852672 -8.791270689216532 L 12.753123992069204 -8.791270689216532 L 12.753123992069204 -0.25 L 4.211853302852672 -0.25 Z"></path></clipPath></defs></svg>